<svg id="Camada_1" data-name="Camada 1" xmlns="http://www.w3.org/2000/svg" viewBox="0 0 349.25 93.09"><defs><style>.cls-1{fill:#f09720;}.cls-2{fill:#4f87fe;}.cls-3{fill:#fa09fe;}.cls-4{fill:#07fbfe;}.cls-5{fill:#0afafe;}.cls-6{fill:#12fbfe;}.cls-7{fill:#fb0afe;}.cls-8{fill:#09fafe;}.cls-9{fill:#f721fe;}.cls-10{fill:#0ff9fe;}.cls-11{fill:#0ff8fe;}.cls-12{fill:#f416fe;}.cls-13{fill:#f80cfe;}.cls-14{fill:#09fbfe;}.cls-15{fill:#11f7fe;}.cls-16{fill:#f125fe;}.cls-17{fill:#f326fe;}.cls-18{fill:#f616fe;}.cls-19{fill:#f31ffe;}.cls-20{fill:#d9f2fe;}.cls-21{fill:#f512fe;}.cls-22{fill:#0afdfe;}.cls-23{fill:#14fafe;}.cls-24{fill:#1eeafe;}.cls-25{fill:#f09a25;}.cls-26{fill:#f1a033;}.cls-27{fill:#f2a43b;}.cls-28{fill:#4e86fc;}.cls-29{fill:#3b3e52;}.cls-30{fill:#3f4357;}.cls-31{fill:#8fd6f8;}.cls-32{fill:#4d82f4;}.cls-33{fill:#8cd2f4;}.cls-34{fill:#4c7ae0;}.cls-35{fill:#3a3d50;}.cls-36{fill:#4d7fec;}.cls-37{fill:#3f4662;}.cls-38{fill:#45424d;}.cls-39{fill:#3f507c;}.cls-40{fill:#464756;}.cls-41{fill:#53545e;}.cls-42{fill:#465e92;}.cls-43{fill:#4c7ce6;}.cls-44{fill:#4b7ae1;}.cls-45{fill:#435378;}.cls-46{fill:#41404e;}.cls-47{fill:#45485d;}.cls-48{fill:#4b7be2;}.cls-49{fill:#464858;}.cls-50{fill:#514949;}.cls-51{fill:#6e6051;}.cls-52{fill:#3b425b;}.cls-53{fill:#45434d;}.cls-54{fill:#4b79de;}.cls-55{fill:#f3b057;}.cls-56{fill:#4f86fe;}.cls-57{fill:#10f6fe;}.cls-58{fill:#f415fe;}.cls-59{fill:#17e1fe;}.cls-60{fill:#eb31fe;}.cls-61{fill:#d92bfe;}.cls-62{fill:#09f5fe;}.cls-63{fill:#0ef8fe;}.cls-64{fill:#f70ffe;}.cls-65{fill:#f713fe;}.cls-66{fill:#3a3e52;}.cls-67{fill:#4d80ef;}.cls-68{fill:#4d81f1;}.cls-69{fill:#4e84f8;}.cls-70{fill:#4562a7;}.cls-71{fill:#8fd7fa;}.cls-72{fill:#3f517f;}.cls-73{fill:#486dbe;}.cls-74{fill:#4c7ee9;}.cls-75{fill:#434e66;}.cls-76{fill:#4d82f2;}.cls-77{fill:#4a6492;}.cls-78{fill:#4e85fa;}.cls-79{fill:#4c7eeb;}.cls-80{fill:#4f86fd;}.cls-81{fill:#4b7ae0;}.cls-82{fill:#4d81f0;}.cls-83{fill:#4e84f9;}.cls-84{fill:#3c435f;}.cls-85{fill:#4e83f7;}.cls-86{fill:#4e85fb;}.cls-87{fill:#4e83f6;}.cls-88{fill:#4971ca;}.cls-89{fill:#40485c;}.cls-90{fill:#4b68a0;}.cls-91{fill:#4d82f3;}.cls-92{fill:#4c78d2;}.cls-93{fill:#546c84;}.cls-94{fill:#414b66;}.cls-95{fill:#465779;}.cls-96{fill:#3b415b;}.cls-97{fill:#4564ad;}.cls-98{fill:#3d4459;}.cls-99{fill:#3d445d;}.cls-100{fill:#3b4058;}.cls-101{fill:#455b8d;}.cls-102{fill:#4462a7;}.cls-103{fill:#4a75d4;}.cls-104{fill:#8ed5f7;}.cls-105{fill:#455269;}.cls-106{fill:#4870ca;}.cls-107{fill:#3e4762;}.cls-108{fill:#4972cf;}.cls-109{fill:#7ab5dd;}.cls-110{fill:#3e4660;}.cls-111{fill:#8bd0f2;}.cls-112{fill:#3f4e79;}.cls-113{fill:#45577d;}.cls-114{fill:#405485;}.cls-115{fill:#475775;}.cls-116{fill:#4972cd;}.cls-117{fill:#3a3f56;}.cls-118{fill:#8fd7f9;}.cls-119{fill:#405384;}.cls-120{fill:#3a3e53;}.cls-121{fill:#41578e;}.cls-122{fill:#404c68;}.cls-123{fill:#3a3e54;}.cls-124{fill:#8fd6f9;}.cls-125{fill:#4a77da;}.cls-126{fill:#3a3f54;}.cls-127{fill:#4664a9;}.cls-128{fill:#3b4057;}.cls-129{fill:#3e4a6f;}.cls-130{fill:#78b0d4;}.cls-131{fill:#3f4f7b;}.cls-132{fill:#3f4e75;}.cls-133{fill:#3e4761;}.cls-134{fill:#405486;}.cls-135{fill:#4a76d5;}.cls-136{fill:#4d81f2;}.cls-137{fill:#4972ce;}.cls-138{fill:#3b4159;}.cls-139{fill:#476cc0;}.cls-140{fill:#6890ac;}.cls-141{fill:#85c5e6;}.cls-142{fill:#4b638a;}.cls-143{fill:#3b3f53;}.cls-144{fill:#4e85f9;}.cls-145{fill:#4a5a70;}.cls-146{fill:#3b425d;}.cls-147{fill:#87c8e9;}.cls-148{fill:#7cb3d2;}.cls-149{fill:#50657c;}.cls-150{fill:#3b435e;}.cls-151{fill:#4b5d77;}.cls-152{fill:#405181;}.cls-153{fill:#83c1e2;}.cls-154{fill:#4668b5;}.cls-155{fill:#4562a9;}.cls-156{fill:#78adcb;}.cls-157{fill:#4c7ce4;}.cls-158{fill:#8bcff1;}.cls-159{fill:#3e455b;}.cls-160{fill:#44526e;}.cls-161{fill:#3b415a;}.cls-162{fill:#4974d1;}.cls-163{fill:#4a77d9;}.cls-164{fill:#485b7b;}.cls-165{fill:#3c4462;}</style></defs><path class="cls-1" d="M794.8,518.33c4.25-8.88,11.47-14.54,20.26-18.52a19.5,19.5,0,0,1,6.67-2.29l2.95-.81c2-1.36,4.67-.1,6.68-1.52l.13.09a1,1,0,0,1,1.1-.14c2.38.26,4.77.06,7.15.14a3.65,3.65,0,0,1,2.29.65c9.72,1.3,18.08,5.51,25.44,11.82a25.39,25.39,0,0,0,4.19,3.27c7.41,8.15,10.5,17.48,9.51,28.61-.74,8.35-1.53,16.48-5.59,24-13.91,25.71-47.18,31.48-69.53,13.44-3.25-2.62-5.14-6.27-8.3-8.84a6.16,6.16,0,0,1-2.52-3.69c-.3-1.54-2-2.21-2.36-3.71-.37-.73-.25-1.6-.69-2.32a10,10,0,0,1-.78-2.27c-.4-.73,0-1.84-1.13-2.22l.15-1.52c-.47-2.48-1.64-4.81-1.6-7.4.07-2.75-.32-5.53.61-8.22a37.74,37.74,0,0,1,3.38-12.53c.25-1.71,1.49-3,2-4.52.07-.31.63-.44.32-.9a2.75,2.75,0,0,1-.22-.26S794.8,518.33,794.8,518.33Z" transform="translate(-788.07 -494.43)"/><path class="cls-2" d="M1032.7,566c-3.5,2.43-7.44,1.12-11.19,1.2-1.1,0-.64-1,0-1.5,2.11-1.81,1.81-4.42,2.2-6.77,1.08-6.62,1.76-13.3,3-19.91a4.37,4.37,0,0,1,2.3-3.52,4.29,4.29,0,0,1,2.73-.88c9.87.06,19.74.07,29.62.09,1.64,3.21.14,5.76-1.71,8.25-4.75,1.93-9.73,1.09-14.63,1.27-2.35.09-4.71.1-7.07.15-1.2.89-1.33,2.15-1.56,3.53-.81,4.8-1.13,9.67-2.07,14.45A7.93,7.93,0,0,1,1032.7,566Z" transform="translate(-788.07 -494.43)"/><path class="cls-2" d="M901,522.15a13,13,0,0,1,8.79-.92c1.18,3.69-.07,7.31-.6,10.86-1.49,9.95-2.7,19.93-4.34,29.85a8.52,8.52,0,0,1-2.12,4.6c-3.67,1.61-7.53.77-11.28.64-1.06,0,.17-.89.57-1.28,3-3.34,2.35-7.68,2.94-11.57q2.12-14,3.94-28A6.52,6.52,0,0,1,901,522.15Z" transform="translate(-788.07 -494.43)"/><path class="cls-2" d="M1082.92,557.59c-.05-.37-.09-.73-.12-1.1-.9-.37-.82-1.44-.5-2.25,1-2.5-.63-5.84,1.57-7.94.25-.75.52-1.49.84-2.22,3.63-.25,7.31,0,10.9-.84,1.74-.42,2.28-1.94,3-3.31a7.73,7.73,0,0,0-.09-5.19l-12.73-.31c-1.2-1.44-.41-3-.33-4.52.16-3,1.88-6.4-1.9-8.54-3.17-.38-6.34-1.22-9.55-.28a16.83,16.83,0,0,1-1.14,13.41c-2.39.49-5-.56-7.23.94a7,7,0,0,0-1.57,8.37c2.4.86,4.92.1,7.35.52a1.23,1.23,0,0,1,.75,1.49c-1,5.39-1.4,10.89-2.42,16.28a4.84,4.84,0,0,0,1.22,4.72,80.45,80.45,0,0,0,22.19-.16c2.32-2.63,3.55-5.45,1.87-8.76Z" transform="translate(-788.07 -494.43)"/><path class="cls-3" d="M902.68,566.54c3.21-11.72,3.7-23.87,5.77-35.77.55-3.16.87-6.36,1.29-9.54,1.8-.25,1.67.81,1.49,2-1.88,12.9-3.7,25.81-5.62,38.7C905.33,563.85,905.27,566.05,902.68,566.54Z" transform="translate(-788.07 -494.43)"/><path class="cls-4" d="M951.47,536.12c-1.86,13.3-3.7,26.61-5.62,39.9-.23,1.56-.14,3.66-2.78,3.4,2.12-7.37,2.35-15,3.57-22.54.92-5.7,1.5-11.47,2.44-17.17C949.3,538.34,949.21,536.34,951.47,536.12Z" transform="translate(-788.07 -494.43)"/><path class="cls-5" d="M901,522.15c-2.78,8.5-2.84,17.45-4.38,26.15-.84,4.72-1.48,9.48-2.14,14.23A3.69,3.69,0,0,1,892,565.9c2.42-9.42,3-19.13,4.56-28.68.6-3.64.93-7.32,1.63-10.93C898.48,524.65,898.39,522.43,901,522.15Z" transform="translate(-788.07 -494.43)"/><path class="cls-6" d="M990,535.6c-2.6,8.68-3,17.72-4.42,26.59-.33,2-.05,4,2.12,5-3.07.14-4.06-1.56-3.87-4.32.11-1.68.2-3.36.31-5-.06-4.39-.22-8.79,2-12.82.44-2.42,0-5,1.39-7.27C988.18,536.75,988.43,535.47,990,535.6Z" transform="translate(-788.07 -494.43)"/><path class="cls-3" d="M1017.16,566.6c2.21-3.19,2.19-7,2.77-10.58.74-4.62,1.48-9.24,2-13.89.28-2.56,1.39-5.48-1.75-7.3,2.69-.06,3.88,1.31,3.67,3.91-.68,8.23-2,16.38-3.42,24.51C1020.14,564.89,1019.52,566.72,1017.16,566.6Z" transform="translate(-788.07 -494.43)"/><path class="cls-7" d="M940.84,566.61c2.24-3.21,2.22-7,2.79-10.63.72-4.64,1.43-9.29,2-14,.31-2.52,1.07-5.22-1.44-7.23,2.57.05,3.5,1.55,3.32,3.88-.62,8.26-2,16.42-3.37,24.57C943.86,564.88,943.19,566.71,940.84,566.61Z" transform="translate(-788.07 -494.43)"/><path class="cls-8" d="M1029,535.52c-2.47,4.22-2.17,9-3,13.62s-1.41,9.25-2.12,13.87c-.21,1.37-.45,2.79-2.37,2.71,1.91-7.9,2.34-16,3.84-24C1025.8,539.4,1025,536,1029,535.52Z" transform="translate(-788.07 -494.43)"/><path class="cls-9" d="M979.78,566.57c2.56-8.66,3-17.65,4.33-26.51.28-2,.33-4-1.73-5.26,2.67.05,3.62,1.53,3.42,4-.15,1.81-.24,3.62-.35,5.43a39.86,39.86,0,0,1-1.86,12c-.4,2.39-.68,4.81-1.25,7.17C982,564.77,981.69,566.38,979.78,566.57Z" transform="translate(-788.07 -494.43)"/><path class="cls-10" d="M1097.05,562.92l3.63-24.54c.62-.91.74-2.29,2.26-2.35-1.88,8.75-2.88,17.63-4.06,26.48a18.14,18.14,0,0,0,.5,4.34C1097.26,566.33,1097.34,564.51,1097.05,562.92Z" transform="translate(-788.07 -494.43)"/><path class="cls-11" d="M1071.41,544.33c1.81.27,1.83.28,1.55,2.18-.7,4.72-1.35,9.45-2.14,14.15a14.86,14.86,0,0,0,.14,6.16c-2.81-.59-2.43-2.75-2.17-4.67C1069.61,556.2,1070.53,550.27,1071.41,544.33Z" transform="translate(-788.07 -494.43)"/><path class="cls-12" d="M1130.88,555.38a5.75,5.75,0,0,0,2.92-4.41c.71-5.18,2.45-10.29,1-15.6,2.44-.15,2.63,1.7,2.49,3.25a82.73,82.73,0,0,1-2,13.55A3.91,3.91,0,0,1,1130.88,555.38Z" transform="translate(-788.07 -494.43)"/><path class="cls-13" d="M1032.7,566c1-6.21,2-12.43,3-18.64.22-1.38-.11-3.22,2.28-3-.76,5.18-1.4,10.39-2.35,15.53C1035.18,562.13,1035.8,565,1032.7,566Z" transform="translate(-788.07 -494.43)"/><path class="cls-14" d="M912.27,547.42c-2.41,5.41-2.57,11.21-3,17-.11,1.51,1.12,2.08,2.09,2.82-2.59.09-3.92-1.07-3.81-3.73A82.17,82.17,0,0,1,909.42,550C909.71,548.69,910.14,547,912.27,547.42Z" transform="translate(-788.07 -494.43)"/><path class="cls-15" d="M1074,521.09c2.78,3,2,11.78-1.14,13.41A72.64,72.64,0,0,0,1074,521.09Z" transform="translate(-788.07 -494.43)"/><path class="cls-13" d="M1085.78,534.43c-2.32.22-1.47-1.49-1.42-2.5.13-2.21.44-4.4.7-6.6a4.36,4.36,0,0,0-1.51-4c2.5-.12,3.32,1.33,3.15,3.5C1086.46,528.06,1086.1,531.25,1085.78,534.43Z" transform="translate(-788.07 -494.43)"/><path class="cls-16" d="M1131.54,567.28c-.32-3,.85-6.3-1.78-8.85,4.4.05,3.21,3.62,3.68,6C1133.67,565.63,1134.27,567.74,1131.54,567.28Z" transform="translate(-788.07 -494.43)"/><path class="cls-17" d="M1095,557.92c1.36-.23,2.22.09,2,1.72-.18,1.09-.32,2.18-.48,3.28-.76,1.53-.9,3.6-3.27,3.74A20.72,20.72,0,0,0,1095,557.92Z" transform="translate(-788.07 -494.43)"/><path class="cls-18" d="M954.22,578.6c.55-2.9,1-5.82,1.71-8.69.23-1-.16-2.78,1.94-2.42-.48,2.72-.91,5.46-1.46,8.17C956.15,576.93,955.94,578.35,954.22,578.6Z" transform="translate(-788.07 -494.43)"/><path class="cls-19" d="M1059.63,543c.72-2.72,1.73-5.38,1.71-8.25,2-.49,1.85.89,1.91,2.12a2.64,2.64,0,0,1-.77,3.5C1061.66,541.38,1061.42,543,1059.63,543Z" transform="translate(-788.07 -494.43)"/><path class="cls-20" d="M983.59,556.26l1.86-12c.24.26.48.52.71.79a72.16,72.16,0,0,1-2,12.82Z" transform="translate(-788.07 -494.43)"/><path class="cls-21" d="M1100,538.38c-1.06,2.16-1.12,5.21-4.67,5.14,2.68-2.35,2.82-5.6,3.17-8.78C1101.71,534.86,1099.3,537.25,1100,538.38Z" transform="translate(-788.07 -494.43)"/><path class="cls-22" d="M913.05,534.74c0,3-.36,6.16,1.66,8.83-2.64-.06-3.35-1.94-3.13-3.94C911.77,538,909.76,535.49,913.05,534.74Z" transform="translate(-788.07 -494.43)"/><path class="cls-23" d="M1062.48,540.35c.26-1.17.52-2.34.77-3.51.72-.58,1.17-1.62,2.38-1.4-.75,2.75-1.83,5.43-1.57,8.37C1060.7,543.94,1063.08,541.47,1062.48,540.35Z" transform="translate(-788.07 -494.43)"/><path class="cls-24" d="M933.91,544.29c.83-.76,1.78-.68,1.79.44,0,1.35-.76,2.31-2.37,1.36A1.83,1.83,0,0,0,933.91,544.29Z" transform="translate(-788.07 -494.43)"/><path class="cls-25" d="M836.58,494.62c-1.33,1.26-3,.41-4.44.63-.22,0-.43,0-.65,0C833,493.75,834.88,494.79,836.58,494.62Z" transform="translate(-788.07 -494.43)"/><path class="cls-26" d="M788.07,542.87c1.16.72.61,1.91.82,2.89l-.7.72Z" transform="translate(-788.07 -494.43)"/><path class="cls-27" d="M794.69,519a4,4,0,0,0-.6,0c0-.47.3-.62.71-.65l0-.05C795.2,518.58,795.17,518.83,794.69,519Z" transform="translate(-788.07 -494.43)"/><path class="cls-28" d="M869.26,560.7l-.46.71c-4.13,2.6-7.14,2.09-9.92-1.69a14.62,14.62,0,0,1-2.62-6.47c-.53-3.29.79-5.7,4.34-7.32,2.72-1.25,5.39-2.45,7.59-4.54,1.67-1.59,2.69-.85,2.82,1.18.2,3.07.11,6.16,0,9.25-.17.84-.34,1.69-1.54,1.47-.64-1.63.1-3.4-.42-4.92-.29-.26,0-.18,0,.1-.12,2.85.64,5.6.83,8.41a23.7,23.7,0,0,1,.25,2.38C870,559.83,869.92,560.44,869.26,560.7Z" transform="translate(-788.07 -494.43)"/><path class="cls-29" d="M870.4,551.65c0-3.08,0-6.17,0-9.25,0-.37-.07-.74-.19-1.91-2.92,3.82-6.81,5.24-10.58,6.87a3.75,3.75,0,0,0-2.38,3.11,12.08,12.08,0,0,0,3.55,10.1c2.42,2.46,5.17,1.83,8,.84-2.82,3.48-7.81,3.6-11.11.21a26.27,26.27,0,0,1-4.34-6.76c-.7-1.37-1.38-2.6-3.21-2.45,1-2.68,4.1-4.44,3.52-7.83,0-1.58-1.16-2.69-1.68-4.06a1.81,1.81,0,0,1,.26-1.43c.3-.18.78-.15,1-.45s-.19-.56-.5-.66a5.38,5.38,0,0,0-2.19,0,16.43,16.43,0,0,1-2.07.4c-.95,0-1.88-.07-2.2-1.21a2.73,2.73,0,0,1,2-1.52c.46-.24,1.82.69,1.23-1-.06-.18.46-.46.78-.6a11.5,11.5,0,0,1,3.54-.57,1.6,1.6,0,0,1,1.19.91c1.23,2,.72,4.48,2.12,6.37a5.77,5.77,0,0,0,2.3.26,10.12,10.12,0,0,1,3,.65,1,1,0,0,1,.48,1.33c-1.45.92-3.12.62-5.3.92,5.88.06,9.57-2.16,11.38-7.2.62-1.56.26-3.23.54-4.83a2.58,2.58,0,0,1,.82-1.46c1.73,3.53.53,7.27.8,10.9.7,3.33.19,6.69.27,10C871.2,551.89,870.87,552,870.4,551.65Z" transform="translate(-788.07 -494.43)"/><path class="cls-29" d="M820.21,553.3c-2.76-1.08-4.24-.14-5.51,2.56-2,4.28-4.48,8.39-10.34,7.81-1.75-.17-3.41-.52-4.44-2.16l.37-.4c6.83-.68,9.51-2.94,10-8.22.27-2.94-.59-4.91-3.57-6-2.49-.91-5.24-1.7-6.32-4.62a1.31,1.31,0,0,1,.9-1.24c1.77-.16,3,1.31,4.54,1.64a14.75,14.75,0,0,0,7.34.51,2.54,2.54,0,0,1,1,.19,2.3,2.3,0,0,1,.61.84c.16,3.94,2.94,6.21,5.53,8.61C820.32,553,820.26,553.14,820.21,553.3Z" transform="translate(-788.07 -494.43)"/><path class="cls-30" d="M839.49,549.68,829,549.52c-.64-1.12,0-2.24,0-3.36a5.65,5.65,0,0,1,.76-3.23c.67-.44,1.13-.06,1.54.43,2.52,3,5.1.91,7.66.09,1.31,1.58,1.37,3.46,1.33,5.37A1.39,1.39,0,0,1,839.49,549.68Z" transform="translate(-788.07 -494.43)"/><path class="cls-31" d="M815.77,518.71l1.44.7c.75,1.12,1.07,2.24.07,3.4A2.54,2.54,0,0,1,815,523a7.87,7.87,0,0,1-1.07-.35c-1.56-.64-3.2-.36-4.81-.42a7.19,7.19,0,0,1-2.21-.3c-.53-.24-1-.55-.89-1.24l2-2.46C810.61,518.1,813.27,517.14,815.77,518.71Z" transform="translate(-788.07 -494.43)"/><path class="cls-32" d="M799.84,528a5.78,5.78,0,0,1,2.09-3,6.73,6.73,0,0,0,2.56-1.67c1-.24,1.74-1.34,3-.88a2.24,2.24,0,0,1,1.27,1.64c-.11,1.4.09,2.85-.56,4.19a3.65,3.65,0,0,1-.89.72,10,10,0,0,1-6.42.38A1.42,1.42,0,0,1,799.84,528Z" transform="translate(-788.07 -494.43)"/><path class="cls-33" d="M853.12,519a3,3,0,0,0,.74,0c1.16-1.5,2.82-.82,4.29-1a14.34,14.34,0,0,1,3.27.92,3,3,0,0,1,1.48,2.35c.15,1.58-1,1.31-2,1.43-2-.37-4-.78-6,.13a4.26,4.26,0,0,1-2.3.52C850.38,521.38,850.47,520.56,853.12,519Z" transform="translate(-788.07 -494.43)"/><path class="cls-34" d="M866.68,525.58l.48.23a8.73,8.73,0,0,1,2.37,3.17l.09,1.08c.51.6.07.85-.41,1.09-1.1-.22-2.08-.94-3.27-.81a12.81,12.81,0,0,1-2-.15,4.34,4.34,0,0,1-2.47-1.48,2.6,2.6,0,0,1-.44-.84,7.62,7.62,0,0,1,.19-1.84,8,8,0,0,1,.42-2.27,1.44,1.44,0,0,1,.7-.61c.9-.3,1.46.4,2.15.74C865.57,524.06,865.94,525.05,866.68,525.58Z" transform="translate(-788.07 -494.43)"/><path class="cls-35" d="M820.36,524.92l28.94-.14a1.41,1.41,0,0,1,.52,1.06c-.45,1.5-1.1,2.69-3,2-1.21-1.08-2.69-1.06-4.19-1.08-7.05-.08-14.09,0-21.14.05-1.16,0-2-.4-2.14-1.71A.69.69,0,0,1,820.36,524.92Z" transform="translate(-788.07 -494.43)"/><path class="cls-36" d="M854.54,544.36c.5,3.74-1.4,6.19-4.4,8l-1,.24c-1.43,1.76-3.26.8-5,.73l0-.15c-.57-.74-.28-1.32.34-1.84,3.16-.67,6.29-1.38,7.66-4.84a8.5,8.5,0,0,1,.49-.88C853.14,545.06,853.43,544.11,854.54,544.36Z" transform="translate(-788.07 -494.43)"/><path class="cls-37" d="M801.53,541.36l-.77.79c-.24.1-.59.19-.69,0-2-2.94-.4,1.44-1.33.65a.7.7,0,0,1-.91,0c0-4.1-.76-8.24.69-12.27.94.74.9,1.89,1.24,2.88A6.09,6.09,0,0,1,800,535c0,.33,0,.66,0,1C799.6,538,802.07,539.25,801.53,541.36Z" transform="translate(-788.07 -494.43)"/><path class="cls-38" d="M871,551.86c.06-3.51.13-7,.19-10.53a59.25,59.25,0,0,1,0,17c-.14,1-.35,2.24-1.83,2.34.13-.47.26-.93.4-1.4A13.57,13.57,0,0,1,871,551.86Z" transform="translate(-788.07 -494.43)"/><path class="cls-39" d="M797.83,542.85l.58,0c2.11,2.33.8,5.17,1.17,7.76,0,1.71,0,3.42-.1,5.13a3.49,3.49,0,0,1-.58,1.79.75.75,0,0,1-1.09.18C796.38,552.73,797.85,547.79,797.83,542.85Z" transform="translate(-788.07 -494.43)"/><path class="cls-40" d="M849.38,525.6c0-.27,0-.55-.08-.82.32-4,1.1-5.22,3.82-5.82-1.25,1.29-3.2,2.56,0,3.9a.67.67,0,0,1,.22.59c0,.21-.08.32-.13.32C852,524.57,851.29,526.32,849.38,525.6Z" transform="translate(-788.07 -494.43)"/><path class="cls-41" d="M820.36,524.92l-1,.11c-1.76.22-3-.25-3-2.29,1.5-.81.94-2.12.82-3.33C820,520.27,819.62,522.91,820.36,524.92Z" transform="translate(-788.07 -494.43)"/><path class="cls-35" d="M827.41,551.09c-1.69,3-4.26,3.22-7.2,2.21l0-.08c1.77-1.51,4-1.84,6.16-2.35A2,2,0,0,1,827.41,551.09Z" transform="translate(-788.07 -494.43)"/><path class="cls-42" d="M868.88,531l.74-.89.72.37c0,.46,0,.91-.07,1.37-.66.71.15,2.09-1.16,2.5a2,2,0,0,1-1-.09c-.45-.83-1.71-.66-2-1.63a1.63,1.63,0,0,1,2.77-1.63Z" transform="translate(-788.07 -494.43)"/><path class="cls-43" d="M845.11,551.66a1.68,1.68,0,0,0-1,1.57c-.89.19-1.48-.45-2.18-.81-.63-1-1.75-1.67-1.88-3a1.1,1.1,0,0,1,.48-.86C842.48,549,844.2,549.76,845.11,551.66Z" transform="translate(-788.07 -494.43)"/><path class="cls-44" d="M829.81,546.5c-.28,1-.57,2-.85,3l-1.24.76-.39-.39c-.7-1.74-.1-3.24.82-4.7C829.73,544.33,829.36,545.94,829.81,546.5Z" transform="translate(-788.07 -494.43)"/><path class="cls-45" d="M864.42,524l-2.26-.63a2.12,2.12,0,0,1-2.46-.8c.1-.64.34-1.05,1.08-.7.74-.13,1.73.51,2.12-.69a2.53,2.53,0,0,1,1.52,2.08c.21.16.28.33.21.5S864.49,524,864.42,524Z" transform="translate(-788.07 -494.43)"/><path class="cls-46" d="M815.77,518.71c-2.55-.86-5.2-.05-7.77-.49C810.65,517.37,813.31,516.46,815.77,518.71Z" transform="translate(-788.07 -494.43)"/><path class="cls-47" d="M799.84,528l.95.87a2.54,2.54,0,0,1,.56.78,4.63,4.63,0,0,1-.09,2.92,1.6,1.6,0,0,1-.71.7c-.88-.07-1.06-.72-1.21-1.41a3.83,3.83,0,0,0-.63-2.39A1.6,1.6,0,0,1,799.84,528Z" transform="translate(-788.07 -494.43)"/><path class="cls-48" d="M798.71,529.46c1.74,0,1.17,1.27,1.24,2.2-.61.6.1,1.6-.67,2.15-1.28-.84-.34-2.19-.76-3.22C798.58,530.21,798.65,529.83,798.71,529.46Z" transform="translate(-788.07 -494.43)"/><path class="cls-49" d="M807.53,522.89l-3,.67c-.21-.11-.28-.24-.23-.37s.13-.21.19-.21l1.51-2.3.74.76C807.42,521.7,808,522.05,807.53,522.89Z" transform="translate(-788.07 -494.43)"/><path class="cls-35" d="M844.18,553.38c1.64-.35,3.44.4,5-.73C847.82,555.12,845.94,553.88,844.18,553.38Z" transform="translate(-788.07 -494.43)"/><path class="cls-35" d="M797.81,557.68l.63.06c1.34.88,2.53,1.83,1.59,3.68l-.11.09A4.08,4.08,0,0,1,797.81,557.68Z" transform="translate(-788.07 -494.43)"/><path class="cls-50" d="M858.42,518.32l-4.56.6c.95-2.38,2.95-1.06,4.52-1.28.25.14.34.28.27.44S858.5,518.32,858.42,518.32Z" transform="translate(-788.07 -494.43)"/><path class="cls-51" d="M858.42,518.32c0-.22,0-.45,0-.68,1.23-.14,2.38-.06,3,1.23A4.67,4.67,0,0,1,858.42,518.32Z" transform="translate(-788.07 -494.43)"/><path class="cls-52" d="M840.41,549.59c.38,1,1.64,1.56,1.55,2.83a4.31,4.31,0,0,1-2.47-2.74l.26-.2C840,549.19,840.24,549.25,840.41,549.59Z" transform="translate(-788.07 -494.43)"/><path class="cls-53" d="M869.53,529l-2.37-3.17C868.91,526.16,869.42,527.42,869.53,529Z" transform="translate(-788.07 -494.43)"/><path class="cls-52" d="M864,524v-.74c1.1.42,2.23.81,2.25,2.28Z" transform="translate(-788.07 -494.43)"/><path class="cls-53" d="M804.5,523c0,.19,0,.39,0,.58a2.65,2.65,0,0,1-2.61,1.41A5.61,5.61,0,0,1,804.5,523Z" transform="translate(-788.07 -494.43)"/><path class="cls-54" d="M827.41,551.09A2.46,2.46,0,0,0,827,551l-.08-.49a.65.65,0,0,1,.83-.25h0Z" transform="translate(-788.07 -494.43)"/><path class="cls-55" d="M795.47,518.35l.46.4-.23.25-.35.09A.67.67,0,0,1,795.47,518.35Z" transform="translate(-788.07 -494.43)"/><path class="cls-56" d="M982.38,534.8l-27.28-.13c-1.4,0-2.77.1-3.63,1.45-1.33,1-1.47,2.62-1.64,4-1.23,9.78-2.61,19.53-4.05,29.27-.5,3.37.57,7.35-2.71,10-.4.58-1.14,1.39.29,1.4,3.76,0,7.67.6,10.86-2.22a12.51,12.51,0,0,0,1.54-3.6c.89-2.46.09-5.39,2.11-7.51,4.79,0,9.58,0,14.36-.14,2.53-.06,5.15.59,7.55-.78a4.85,4.85,0,0,0,1.07-1.51,103.47,103.47,0,0,0,3.92-27.32C984.76,536.15,983.77,535.31,982.38,534.8ZM969.6,557.72l-9-.09a24.62,24.62,0,0,1,1.69-13.24l8.88-.1A22.31,22.31,0,0,1,969.6,557.72Z" transform="translate(-788.07 -494.43)"/><path class="cls-57" d="M970.34,557.72a88.11,88.11,0,0,0,1.91-13.43c.87-.36,2-.6,1.84.74-.37,3.78-.93,7.53-1.52,11.28A1.73,1.73,0,0,1,970.34,557.72Z" transform="translate(-788.07 -494.43)"/><path class="cls-58" d="M961.36,544.39l-2.07,13.24c-1.19.19-1.56-.44-1.41-1.49.51-3.51,1-7,1.56-10.55C959.61,544.49,960.38,544.26,961.36,544.39Z" transform="translate(-788.07 -494.43)"/><path class="cls-2" d="M1134.8,535.37a5.62,5.62,0,0,0-1.71-.62q-13.65-.07-27.29-.06c-1.14,0-2.26.14-2.86,1.34a11.6,11.6,0,0,0-2.2,5.85c-.91,6.35-2,12.67-2.67,19.06-.22,2.23-.1,4.15,1.31,5.91a12.9,12.9,0,0,0,2.49.49c9.89,0,19.78,0,29.67-.06,1.68-4,1.11-6.78-1.78-8.85-6.22-1.63-12.74.19-19-1.67,6.69-1.06,13.46-.24,20.1-1.38a5.16,5.16,0,0,0,3.69-4.17,62,62,0,0,0,1.45-9.76C1136.18,539.3,1136.9,537.06,1134.8,535.37Zm-11.54,10.69-10.85-.16a1.41,1.41,0,0,1,.26-1.53l11.16-.07C1124.54,545.18,1124.4,545.78,1123.26,546.06Z" transform="translate(-788.07 -494.43)"/><path class="cls-59" d="M1123.26,546.06a2,2,0,0,0,.58-1.75c.68-.58,1.48-.79,1.52.35S1124.8,546.85,1123.26,546.06Z" transform="translate(-788.07 -494.43)"/><path class="cls-60" d="M1112.67,544.37c-.09.51-.17,1-.26,1.53-.68,0-1.67.31-1.65-.68C1110.79,544,1111.86,544.28,1112.67,544.37Z" transform="translate(-788.07 -494.43)"/><path class="cls-2" d="M944.18,534.8c-10.37-.36-20.75-.31-31.13-.06-1.54,4.1-1.12,6.31,1.66,8.83,6.35,1.42,12.8.32,19.2.72,1.33,1.08.6,1.51-.58,1.8-4.29,0-8.59-.18-12.87,0-2.76.09-5.65-.2-8.19,1.36a2.2,2.2,0,0,0-1.35,1.21,44.77,44.77,0,0,0-2.31,16c.06,1.62,1.35,2.24,2.76,2.6l27.52.13c.74,0,1.51.06,2-.73,1.84-1.32,2.48-3.19,2.85-5.34,1.08-6.24,1.84-12.54,2.75-18.81C946.82,539.85,948.12,536.4,944.18,534.8Zm-11.89,22.85-11.19.05a1.25,1.25,0,0,1,.25-1.72c3.66-.72,7.36-.26,11-.28A1.14,1.14,0,0,1,932.29,557.65Z" transform="translate(-788.07 -494.43)"/><path class="cls-61" d="M921.35,556c-.08.58-.16,1.15-.25,1.72-.62,0-1.62.4-1.63-.62S920.15,555.37,921.35,556Z" transform="translate(-788.07 -494.43)"/><path class="cls-62" d="M932.29,557.65l.09-1.95c.82-.16,1.55,0,1.51,1S933.07,557.71,932.29,557.65Z" transform="translate(-788.07 -494.43)"/><path class="cls-2" d="M1020.18,534.83c-9.16-.05-18.31-.09-27.46-.17a3.57,3.57,0,0,0-2.7.94,3.52,3.52,0,0,0-1.33,1.74,125.73,125.73,0,0,0-3.84,26.6c-.07,1.94,1.11,2.88,2.87,3.28l27.5.12c.74,0,1.5,0,1.94-.74a5.22,5.22,0,0,0,2.47-3.57c1.29-8,2.77-16,3.33-24.06C1023.11,536.86,1022.41,535.34,1020.18,534.83ZM1007.4,557.7l-8.85-.08a25.34,25.34,0,0,1,1.5-13.22l8.89-.09A22.4,22.4,0,0,1,1007.4,557.7Z" transform="translate(-788.07 -494.43)"/><path class="cls-63" d="M1008.33,557.7q1-6.69,1.91-13.39c.56-.14,1.46-.56,1.49.3A37.83,37.83,0,0,1,1010,557.2C1009.79,557.8,1009,557.77,1008.33,557.7Z" transform="translate(-788.07 -494.43)"/><path class="cls-64" d="M999.23,544.4l-1.86,13.22c-.57,0-1.56.29-1.52-.47a61.59,61.59,0,0,1,1.78-12.23C997.81,544.26,998.6,544.31,999.23,544.4Z" transform="translate(-788.07 -494.43)"/><path class="cls-65" d="M1084.28,544.35q-.9,6.63-1.81,13.25c-.69,0-1.75.31-1.63-.79.43-3.77,1-7.51,1.56-11.26C1082.55,544.51,1083.26,544.13,1084.28,544.35Z" transform="translate(-788.07 -494.43)"/><path class="cls-66" d="M869,557.63v-9.78l.52,0c.12,1.8.23,3.59.35,5.39C869.89,554.73,871.19,556.52,869,557.63Z" transform="translate(-788.07 -494.43)"/><path class="cls-67" d="M868.88,557.63c1.36-1.27.44-3,.86-4.43l.66-1.54a3.62,3.62,0,0,0,.55.2c-.28,2.5,0,5.11-1.28,7.44C869.4,558.74,869.14,558.18,868.88,557.63Z" transform="translate(-788.07 -494.43)"/><path class="cls-68" d="M857,541.38c-.56.43-1.37.63-1.37-.24a20.42,20.42,0,0,0-1.1-6.58c.81-1.12-.4-1.68-.72-2.48a2.69,2.69,0,0,1-.33-1c.23-1.73,1.24-2.33,2.87-1.9,1,.25,1.87.84,2.71-.17a5.6,5.6,0,0,1,1.48-1.31.81.81,0,0,1,.88.25l0-.06c.95,1.46,2.27,2.77,1.79,4.75.08.64.24,1.27.33,1.91a2.6,2.6,0,0,1-.89,2.28,1.67,1.67,0,0,1-1,.3c-.93-.09-1.75-.86-2.76-.45a3.64,3.64,0,0,0-1.42,1.06c-.58.87-.27,1.79-.17,2.69A1.27,1.27,0,0,1,857,541.38Z" transform="translate(-788.07 -494.43)"/><path class="cls-69" d="M869.12,536.72l.41.72a9.72,9.72,0,0,1-14.9,5.56h8.16c.52-2-1.38-4.15.22-6.15A7.48,7.48,0,0,1,869.12,536.72Z" transform="translate(-788.07 -494.43)"/><path class="cls-70" d="M848.7,536.09l-2.34.81a.73.73,0,0,1-.93-.08,2,2,0,0,1,.24-2.42c.31-.39.65-.76.93-1.17.61-1,.33-2.34,1.25-3.22a1.53,1.53,0,0,1,1.51,0,4.66,4.66,0,0,1,1.18,2.88,2.24,2.24,0,0,1-.15,1C849.27,534.22,849.12,535.26,848.7,536.09Z" transform="translate(-788.07 -494.43)"/><path class="cls-71" d="M850,533.86l0-.77a2.09,2.09,0,0,1,.75-2.43,2.49,2.49,0,0,1,2.13-.15c.53.25.68.82,1,1.21l-.06,0a1.6,1.6,0,0,1,.07,2.26c-1.14.86-2.44.72-3.74.6-.28-.1-.39-.23-.35-.4S850,533.86,850,533.86Z" transform="translate(-788.07 -494.43)"/><path class="cls-67" d="M850.28,537.07c1-.06,1.93-.14,2.9-.17,1.15,0,1.43.74,1.39,1.68,0,.54.4,1.44-.35,1.53-.56.06-1.2-.62-1.8-1C850.79,539.39,850.16,538.61,850.28,537.07Z" transform="translate(-788.07 -494.43)"/><path class="cls-72" d="M863.06,537c-.07,1.91,1.49,3.9-.27,5.74l-.68-.64a4.42,4.42,0,0,1-1.16-2,4.18,4.18,0,0,1-.21-.93,2.86,2.86,0,0,1,.25-1.41c.24-.45.76-.56,1.13-.86v0A.54.54,0,0,1,863.06,537Z" transform="translate(-788.07 -494.43)"/><path class="cls-73" d="M850.28,537.07a4.25,4.25,0,0,0,2.14,2.08l.15,1.29a1.4,1.4,0,0,1-.82.69,3.68,3.68,0,0,1-3.11-.91,2,2,0,0,1-.52-1.52,2.48,2.48,0,0,1,.48-1Z" transform="translate(-788.07 -494.43)"/><path class="cls-74" d="M851.46,540.87l1.11-.43a4.7,4.7,0,0,1,2,3.92l-1.27,1.46c-1-.56-.95-1.71-1.46-2.55C851.47,542.5,851,541.75,851.46,540.87Z" transform="translate(-788.07 -494.43)"/><path class="cls-75" d="M861.29,538.89l.18,1.2c-.18,1.36-.84,1.93-2.21,1.3a2.38,2.38,0,0,1-2.3,0c0-.28,0-.55-.05-.83a.53.53,0,0,1-.25-.56c.05-.21.11-.31.17-.31A24,24,0,0,1,861.29,538.89Z" transform="translate(-788.07 -494.43)"/><path class="cls-76" d="M868.91,534c.45-.73.91-1.45,1.37-2.18-.15,1.71.82,3.56-.7,5.09l0,0a4.6,4.6,0,0,1-.6-.71C868.75,535.48,868.36,534.75,868.91,534Z" transform="translate(-788.07 -494.43)"/><path class="cls-77" d="M853.93,533.94c0-.76,0-1.51-.07-2.26,2.2.53,1.93,1.6.64,2.88Z" transform="translate(-788.07 -494.43)"/><path class="cls-78" d="M848.6,537.74l0,.81c-1.45.84-2.83,1.06-4-.53,0-.72.1-1.26,1-1.14a5,5,0,0,1,.67,0C846.82,537.94,847.84,537.5,848.6,537.74Z" transform="translate(-788.07 -494.43)"/><path class="cls-79" d="M859.26,541.39a2.25,2.25,0,0,0,2.21-1.3c.92.44.7,1.25.64,2C861.15,541.91,859.94,542.7,859.26,541.39Z" transform="translate(-788.07 -494.43)"/><path class="cls-74" d="M850,533.86a2.58,2.58,0,0,1,.15.68c-.59.43.34,2.29-1.49,1.55C848.59,535,848.59,534,850,533.86Z" transform="translate(-788.07 -494.43)"/><path class="cls-80" d="M800,561.42l-1.59-3.68c0-.5.07-1,.11-1.51a.68.68,0,0,1,.67-.3c0-2.49.35-5,.48-7.45a9.69,9.69,0,0,1-.27,2.57.69.69,0,0,1-.92,0c0-2.73-.07-5.47-.1-8.21.09-.71.17-1.42.29-2.4l2.06,1.73c1.72,2.33,4.38,3.2,6.9,4.13,3.11,1.13,4.08,3.16,3.82,6.3C810.92,559.39,806.92,562.56,800,561.42Z" transform="translate(-788.07 -494.43)"/><path class="cls-81" d="M801.53,541.36c-.77-1.74-2.89-2.9-2.26-5.22,2.46-1.55,4.88-1.22,7.27.14a2.36,2.36,0,0,1,.84,2.05c-.33,1.4-1.31,2.66-1,4.22-.12.55-.62.69-1,.94C803.77,543.25,802.8,542.05,801.53,541.36Z" transform="translate(-788.07 -494.43)"/><path class="cls-82" d="M827,551a11.58,11.58,0,0,1-6.7,2.21c-3.48-2-6.4-4.28-5.9-8.86.77-.33,1.26.1,1.72.62a6.37,6.37,0,0,1,.6,1.33,5.84,5.84,0,0,0,1.48,2.42,5.09,5.09,0,0,0,5.35,1.69c1.18-.31,2.47-.46,3.46.62Z" transform="translate(-788.07 -494.43)"/><path class="cls-83" d="M805.3,543.49l.73-.66c2.31-1.55,4.73-1.17,7.17-.4a.92.92,0,0,1,.38,1.16C810.8,545.09,808.05,544.5,805.3,543.49Z" transform="translate(-788.07 -494.43)"/><path class="cls-44" d="M815.6,545.09l-1.25-.73c-.06-.25-.13-.51-.19-.77-.38-1.3.35-2.3.9-3.36a2.41,2.41,0,0,1,2.15-1.33,2.06,2.06,0,0,1,1.1,1.09c.39,1.34-.33,2.33-1.06,3.31C816.7,543.9,816.43,544.75,815.6,545.09Z" transform="translate(-788.07 -494.43)"/><path class="cls-84" d="M815.66,541.16l-1.5,2.84h-.58l-.15-.66a4,4,0,0,1-.76-1.59c-.07-1.19-.11-2.38,1.12-3.1C815.28,538.84,815,540.32,815.66,541.16Z" transform="translate(-788.07 -494.43)"/><path class="cls-85" d="M839,543.52c-1,2.69-3.37,2.14-5.56,2.48-2.92.45-2.24-2.24-3.45-3.2a2,2,0,0,1-.48-1.61c.47-1.32.22-3.21,2.5-3.08,1.85,3,2.91,3.12,5.2.36,2-.43,1.77,1.58,2.62,2.41a2.25,2.25,0,0,1,.24,1A2.16,2.16,0,0,1,839,543.52Z" transform="translate(-788.07 -494.43)"/><path class="cls-86" d="M830,541.36v1.44c0,1.23-.08,2.47-.13,3.7L828.75,545c-1.53-1.14-1.66-2.67-1.21-4.35C828.65,539.86,829.43,540.25,830,541.36Z" transform="translate(-788.07 -494.43)"/><path class="cls-87" d="M839,543.52l.63-1.4c2.55,1.88,1.29,4.28.9,6.57l-.07.9a5,5,0,0,1-.66-.11C839.41,547.51,838.64,545.58,839,543.52Z" transform="translate(-788.07 -494.43)"/><path class="cls-69" d="M816.39,522.74c.64,1.23,1.94,1.6,3,2.29.41.62.73,1.33,1.59,1.48l.46.35c.57.89.92,1.75-.29,2.43-2.11.35-4.21,1.07-6.37.26-1-1.44-.71-3.09-.77-4.69a7,7,0,0,1,.11-1.2,3.44,3.44,0,0,1,.87-1.57Z" transform="translate(-788.07 -494.43)"/><path class="cls-88" d="M815,522.09v1.42c-1.4,1.22-3.07,1-4.72.87a3.5,3.5,0,0,1-1.13-.42c-.48-.69-1.76-1.29-.3-2.24,1.75.75,3.62-.54,5.37.28Z" transform="translate(-788.07 -494.43)"/><path class="cls-89" d="M814.21,522c-1.74-.19-3.46,1.57-5.21,0-.25-.15-.33-.3-.25-.44s.17-.22.26-.22C810.76,521.44,812.63,520.51,814.21,522Z" transform="translate(-788.07 -494.43)"/><path class="cls-90" d="M809,521.37a2.43,2.43,0,0,0,0,.66c-.8.52,0,1,0,1.51.14.66-.12.91-.78.74l-.72-1.39-.78-1.45Z" transform="translate(-788.07 -494.43)"/><path class="cls-91" d="M808.25,524.28l.78-.74h.82c1.32.83.87,2,.54,3.08a2.73,2.73,0,0,1-1.22,1.53l-.5.06-.42-.28A2.94,2.94,0,0,1,808.25,524.28Z" transform="translate(-788.07 -494.43)"/><path class="cls-35" d="M800.83,529.61l0-.75c2.18-.49,4.56.53,6.62-.84a1.13,1.13,0,0,1,0,1.77A6.85,6.85,0,0,1,800.83,529.61Z" transform="translate(-788.07 -494.43)"/><path class="cls-54" d="M807,529.43V528l.84-.1,0,.14a1.12,1.12,0,0,1,.08,1.44A.88.88,0,0,1,807,529.43Z" transform="translate(-788.07 -494.43)"/><path class="cls-92" d="M860,522.55c.75.24,1.66.08,2.19.86l0,.1a5.33,5.33,0,0,1-1.07.7,18.42,18.42,0,0,1-7,0,2.22,2.22,0,0,1-1-.78,1,1,0,0,0,.06-.58l1.51-.91C856.38,522.21,858.32,521.1,860,522.55Z" transform="translate(-788.07 -494.43)"/><path class="cls-93" d="M860,522.55c-1.73-.8-3.72.74-5.38-.6a6.92,6.92,0,0,1,6.19,0Z" transform="translate(-788.07 -494.43)"/><path class="cls-94" d="M862.19,533.49c.53-2-.51-3.71-.85-5.55l2.27,1.51a2.08,2.08,0,0,1,.59,1.55C864,532.16,863.61,533.26,862.19,533.49Z" transform="translate(-788.07 -494.43)"/><path class="cls-95" d="M861.38,528l-.79.11c-1.58,0-2-1.27-2.44-2.42.46-1.63,1.48-1.06,2.47-.62a4.79,4.79,0,0,1,1.35,1.52Z" transform="translate(-788.07 -494.43)"/><path class="cls-96" d="M868.88,531l-2.49.21a.86.86,0,0,1-.82-.39,1.11,1.11,0,0,1,.29-1.31C867,529.62,868.78,528.63,868.88,531Z" transform="translate(-788.07 -494.43)"/><path class="cls-97" d="M862,526.59l-1.35-.85a1.4,1.4,0,0,1-.38-1.23c.17-.47.63-.62,1-.89l.9-.11Z" transform="translate(-788.07 -494.43)"/><path class="cls-98" d="M866,529.46v1.42a1.51,1.51,0,0,1-2.24.07c0-.5,0-1,0-1.5Z" transform="translate(-788.07 -494.43)"/><path class="cls-28" d="M829.94,541.36l-1.93-.75c-.76.09-1.19-.41-1.61-.9a4.72,4.72,0,0,0-1.71-1.49c-.66-.36-1.61-.19-2-1.06a5.58,5.58,0,0,1-.39-2c0-1.22,0-2.43,0-3.63a13.37,13.37,0,0,0-.25-2,3.61,3.61,0,0,0-1-3.1l0,0c.46-.74,1.21-.76,2-.76,7.56,0,15.11,0,22.66,0,1.55,0,2.44.21,1.68,2a1.72,1.72,0,0,1,.34,1.4,3.41,3.41,0,0,0-.56,3.13,3.36,3.36,0,0,1-.7,2.41c-.86.56-.67,1.43-.66,2.25-.28.32-.56.63-.83,1a3.49,3.49,0,0,0-2,1.64c-1,.76-1.64,2-3.16,1.91-2.12.11-1-2.53-2.53-2.92a16.36,16.36,0,0,1-5.27-.09C830.08,538.56,831.23,540.77,829.94,541.36Z" transform="translate(-788.07 -494.43)"/><path class="cls-79" d="M847.14,529.21c0-.5.09-1,.14-1.52a3.84,3.84,0,0,0,2.1-2.09c1.31-.56,2.09-2,3.64-2.16l1,.1c.4.34.92.55,1.13,1.08a3.65,3.65,0,0,1,0,2.12c-.42,1.34-.5,2.9-2.24,3.36a19.39,19.39,0,0,1-3.14.1l-.51-.08-1.26,0C847.46,530,847.11,529.82,847.14,529.21Z" transform="translate(-788.07 -494.43)"/><path class="cls-99" d="M839.75,541.38l2.89-2.27a2.25,2.25,0,0,1,3.09.06c.33.83-.25,1.31-.7,1.86-2.6,3.11-2.54,3.56.73,6.23a2.4,2.4,0,0,0,2.7.11,35.08,35.08,0,0,1,3.51-1.79c.65,0,.83.47,1,.94-1.15,4-4,5.38-7.88,5.14-1.87-.48-3.09-2-4.63-3l-.9-6.57C839.63,541.87,839.69,541.63,839.75,541.38Z" transform="translate(-788.07 -494.43)"/><path class="cls-100" d="M853,546.52l-.66-.85c-.64-1-1.73-1.94,0-2.91,1.2.76.69,2,.93,3.06Z" transform="translate(-788.07 -494.43)"/><path class="cls-101" d="M806.71,536.82c-2.43-.78-5-.56-7.44-.68l.11-.77a2.67,2.67,0,0,1,1.15-.69,1.46,1.46,0,0,0,1.26-1.44,1.68,1.68,0,0,1,1.73-1.38,2.6,2.6,0,0,1,.94.27,1.67,1.67,0,0,1,.54,1.23c.38,1.16,1.68.31,2.27,1a1.5,1.5,0,0,1,.49.86A1.87,1.87,0,0,1,806.71,536.82Z" transform="translate(-788.07 -494.43)"/><path class="cls-102" d="M800.87,535.35l-1.5,0-.09-1.56c0-.8-.08-1.6.67-2.15.17.52.14,1.17.86,1.33l.35.4A1.79,1.79,0,0,1,800.87,535.35Z" transform="translate(-788.07 -494.43)"/><path class="cls-103" d="M798.51,551l.65,0a6.66,6.66,0,0,1,0,5.27c-.21,0-.41,0-.62,0C798.53,554.5,798.52,552.77,798.51,551Z" transform="translate(-788.07 -494.43)"/><path class="cls-104" d="M863.62,531l2.24-.07a.79.79,0,0,0,.53.28c.14.67.29,1.33.44,2-.31,1.86-1.89,1.61-3.16,1.88a.77.77,0,0,1-.79-.68l-.69-.87Z" transform="translate(-788.07 -494.43)"/><path class="cls-105" d="M863.52,534.49c1-.73,2.59.06,3.31-1.33.75-.44,1.3-.49,1.21.65a2.67,2.67,0,0,1-2.08,2.27C864.61,536.37,863.36,536.49,863.52,534.49Z" transform="translate(-788.07 -494.43)"/><path class="cls-106" d="M866.05,535.47l2-1.66.87.17c.23.73.45,1.46.68,2.19C868.33,536.36,866.89,537.42,866.05,535.47Z" transform="translate(-788.07 -494.43)"/><path class="cls-107" d="M827,539l1,1.6.69,4.43-1,5.23c-.24.26-.49.51-.74.77-2.22-.62-4.26,1.29-6.44.5a5.55,5.55,0,0,1-3.33-2.68c-.48-1,.31-1.13.95-1.36a3.11,3.11,0,0,1,1,.06,3.66,3.66,0,0,1,.89.43,3.16,3.16,0,0,0,3.45.23,6.35,6.35,0,0,0,1.69-1.58c1.56-1.91.16-3.78-.06-5.67a2.83,2.83,0,0,1,.54-1.44A1.17,1.17,0,0,1,827,539Z" transform="translate(-788.07 -494.43)"/><path class="cls-108" d="M807.41,529.43c.24,0,.48,0,.72,0a.69.69,0,0,1,0,1.06c-1.31.86-2.8.64-4.24.68a3.87,3.87,0,0,1-2.9-.93c0-.21-.08-.42-.11-.64Z" transform="translate(-788.07 -494.43)"/><path class="cls-100" d="M803.78,532.37a1.49,1.49,0,0,0-1.55,1.43c-.74.56-1-.18-1.45-.51l0-.29c0-.22,0-.44,0-.65.75-1.09,1.49-2.21,3.12-1.5A1.21,1.21,0,0,1,803.78,532.37Z" transform="translate(-788.07 -494.43)"/><path class="cls-32" d="M803.75,530.89c-1.27-.08-1.91,1.09-3,1.46.05-.7.09-1.4.14-2.1l2.91,0A.42.42,0,0,1,803.75,530.89Z" transform="translate(-788.07 -494.43)"/><path class="cls-109" d="M861.29,538.89a3.16,3.16,0,0,1-4.29.77,2.06,2.06,0,0,1,0-2.8l1-.68c1.7-.84,2.53.14,3.16,1.52Z" transform="translate(-788.07 -494.43)"/><path class="cls-110" d="M852.4,529.46c2,0,1.09-2.19,2.24-2.81a2.12,2.12,0,0,1,1.91.52c.86,1.08,2.32,1.29,3.31,2.2-.75,2-2,1.68-3.46.8-1.92-1.2-2.31,0-2.48,1.55l-.78-.76C852.74,530.54,851.93,530.32,852.4,529.46Z" transform="translate(-788.07 -494.43)"/><path class="cls-111" d="M859.86,529.37c-1.7.09-3.4.19-3.87-2-.33-.9.17-1.44.84-1.9a1.54,1.54,0,0,1,1.61.24c1.23.37,1.25,1.78,2.15,2.43C860.34,528.53,860.1,529,859.86,529.37Z" transform="translate(-788.07 -494.43)"/><path class="cls-112" d="M866.05,535.47c1,1.33,2.38.39,3.54.7l0,.75-6.56.07-.94-.1c.25-.84.5-1.68.76-2.53a4.53,4.53,0,0,0,.64.13C864,535.88,864.9,535.92,866.05,535.47Z" transform="translate(-788.07 -494.43)"/><path class="cls-113" d="M861.24,537.7c-.92-.78-1.79-1.66-3.16-1.52,1.69-1.77,2.73.23,4,.69Z" transform="translate(-788.07 -494.43)"/><path class="cls-52" d="M857,536.86c0,.93,0,1.87,0,2.8l-.09.89C855.63,539.27,855.53,538,857,536.86Z" transform="translate(-788.07 -494.43)"/><path class="cls-114" d="M847.14,529.21l.87.88c-.34,1.25.43,2.73-.8,3.8-.83-.54,0-1.68-.79-2.22C845,530.35,846,529.77,847.14,529.21Z" transform="translate(-788.07 -494.43)"/><path class="cls-115" d="M850.92,531l-.93,2.07c-1-.82-.42-2-.72-3l.13.08C850.29,529.75,851,529.59,850.92,531Z" transform="translate(-788.07 -494.43)"/><path class="cls-116" d="M846.42,531.67c1.45.32.36,1.54.79,2.22l-.85.74Z" transform="translate(-788.07 -494.43)"/><path class="cls-117" d="M850.92,531a1.54,1.54,0,0,0-1.52-.82c.74-1.27,2-.63,3-.74l.74,1.5Z" transform="translate(-788.07 -494.43)"/><path class="cls-118" d="M852.34,542.76c-1,1,.38,2,0,2.91-.52,1.81-2.36,1.72-3.61,2.48a1,1,0,0,1-.86.12,7.68,7.68,0,0,0-1.78-.28l-.45,0a3.67,3.67,0,0,1-3.45-3.55c-.3-2.35,1.38-3.75,3.45-4.63a2.43,2.43,0,0,1,3,0l2.84,1.14Z" transform="translate(-788.07 -494.43)"/><path class="cls-119" d="M848.62,539.73l-3,0c-.83-1-2-.5-3-.65.15-1.45.57-2.44,2.23-1.28,1.11,1,2.55.28,3.77.72C848.64,538.94,848.63,539.34,848.62,539.73Z" transform="translate(-788.07 -494.43)"/><path class="cls-120" d="M799.17,556.26c0-1.76,0-3.52,0-5.27.38-1.27-.3-2.68.86-4.43,0,3.77,0,7,0,10.22,0,.07-.18.14-.27.22Z" transform="translate(-788.07 -494.43)"/><path class="cls-121" d="M813.43,541.27v1.67l-7.4-.11c-.7-1.4-1.28-2.79.72-3.68.78.55,1.42,1.39,2.55,1.26l1.57,0A3.87,3.87,0,0,1,813.43,541.27Z" transform="translate(-788.07 -494.43)"/><path class="cls-80" d="M809.07,541.36c-1.77.3-2.44-.54-2.32-2.21,0-.78,0-1.55,0-2.33.08-.6.15-1.2.82-1.47,1,.85.75,2.13,1.17,3.19.12.3.21.61.31.93A2.2,2.2,0,0,1,809.07,541.36Z" transform="translate(-788.07 -494.43)"/><path class="cls-122" d="M818.83,548a1.76,1.76,0,0,0-1.64.86,3.62,3.62,0,0,1-1.27-2.33,2.32,2.32,0,0,1,.81-.53,2.55,2.55,0,0,1,1.93.25,1.57,1.57,0,0,1,.49.84A1.5,1.5,0,0,1,818.83,548Z" transform="translate(-788.07 -494.43)"/><path class="cls-123" d="M816.53,546.55l-.61,0c-.11-.48-.22-1-.32-1.44.23-.87,0-2,1.23-2.32a3,3,0,0,1,.47,2.23A3.25,3.25,0,0,1,816.53,546.55Z" transform="translate(-788.07 -494.43)"/><path class="cls-124" d="M816.56,545l.27-2.18c.42-.92,1.34-1.62,1.18-2.77.13-.11.26-.22.38-.34a12.54,12.54,0,0,1,5-.55c.92.18,1.74.49,2,1.54,1.2,2.27,2.83,4.54.08,6.85-1.77.64-3.55,1.12-5.43.41a3.16,3.16,0,0,1-1-.68,1.46,1.46,0,0,0-.32-.66C818.14,545.82,817.24,545.53,816.56,545Z" transform="translate(-788.07 -494.43)"/><path class="cls-125" d="M815.66,540.75c-1.49-.18-1.36-1.33-1.42-2.36-1.39-.95-.83-1.61.34-2.18,2-.19,4.37-.92,4.63,2.35a1.26,1.26,0,0,1-.8.88,1.39,1.39,0,0,1-1.16-.31A2.82,2.82,0,0,0,815.66,540.75Z" transform="translate(-788.07 -494.43)"/><path class="cls-56" d="M817.25,539.13h.7c.27.16.37.33.29.51s-.16.28-.25.28l0,.07Z" transform="translate(-788.07 -494.43)"/><path class="cls-86" d="M814.09,536.91c-.72.57.12,1,.15,1.48-1.33.67-.52,1.93-.81,2.88l-2.9.08a3.85,3.85,0,0,1-.21-2.3,5.61,5.61,0,0,0,.79-1.7,5.42,5.42,0,0,1,.54-1.84,1.62,1.62,0,0,1,.81-.54,2.42,2.42,0,0,1,1,.09,2.11,2.11,0,0,1,1.06,1.08A.61.61,0,0,1,814.09,536.91Z" transform="translate(-788.07 -494.43)"/><path class="cls-126" d="M832,538.37a4.38,4.38,0,0,1,5.27.08c.16,1,.88,2.43-.54,2.79a8.62,8.62,0,0,1-4.62-.08C830.69,540.69,831.66,539.34,832,538.37Z" transform="translate(-788.07 -494.43)"/><path class="cls-127" d="M815,529.46c2.11-.89,4.35-.69,6.56-.83a.58.58,0,0,1,.39.7,1.6,1.6,0,0,1-.65.64,10.3,10.3,0,0,1-1.3.51c-1.27.32-2.17,1.29-3.33,1.82a5.41,5.41,0,0,1-3.74-.16,1.8,1.8,0,0,1-.75-.84,3.11,3.11,0,0,1-.18-1.13c.14-1,.54-1.85,1.79-1.82C814.46,528.48,814.65,529.08,815,529.46Z" transform="translate(-788.07 -494.43)"/><path class="cls-128" d="M809.82,526.43l0-2.9,5.14,0,0,.75a4.3,4.3,0,0,1-.76.59c-1,.3-1.38,1.3-2.1,1.91a2.67,2.67,0,0,1-1,.31A1.55,1.55,0,0,1,809.82,526.43Z" transform="translate(-788.07 -494.43)"/><path class="cls-129" d="M814.15,524.3l.86,0,0,5.2-.88-.66a3.84,3.84,0,0,1-.75-1.64A3.91,3.91,0,0,1,814.15,524.3Z" transform="translate(-788.07 -494.43)"/><path class="cls-52" d="M821.74,529.53c0-.3-.09-.6-.14-.9l-.64-2.17c1.53.57,1.42,2.14,2,3.28A1.62,1.62,0,0,1,821.74,529.53Z" transform="translate(-788.07 -494.43)"/><path class="cls-130" d="M809.82,526.43l1.34.14c2,.71,1.23,2.24,1.09,3.58-1,1.64-2.2,1.61-3.44.22a3.09,3.09,0,0,1,.11-2.33Z" transform="translate(-788.07 -494.43)"/><path class="cls-131" d="M808.92,528l.15,1.87a1.37,1.37,0,0,1,.09,1.05,1,1,0,0,1-1,0,.73.73,0,0,1,.09-1,6,6,0,0,0-.1-.61l.18-1.38A2.08,2.08,0,0,1,808.92,528Z" transform="translate(-788.07 -494.43)"/><path class="cls-35" d="M854.6,524.35l-.6-.81,7.22.08c-.21.27-.43.53-.64.79-1.63.19-3.21.76-4.89.54A4.64,4.64,0,0,1,854.6,524.35Z" transform="translate(-788.07 -494.43)"/><path class="cls-116" d="M855.43,524.37l5.15,0c0,.45,0,.89,0,1.33-.72-.08-1.42-1.25-2.18-.06l-1.28.17C855.83,526.24,855.38,525.6,855.43,524.37Z" transform="translate(-788.07 -494.43)"/><path class="cls-132" d="M827.94,534.68c-1.24-.42-3.39.59-3.26-1.83.1-1.92,1.63-2.53,3.41-2.52a2.78,2.78,0,0,1,3.06,2.51C831.3,535.1,829.29,534.5,827.94,534.68Z" transform="translate(-788.07 -494.43)"/><path class="cls-133" d="M841.15,534.64c-1.21-.22-3,.54-3-1.63,0-1.74,1.27-2.55,2.93-2.59,1.82,0,3.19.76,3.14,2.7C844.16,535.29,842.29,534.36,841.15,534.64Z" transform="translate(-788.07 -494.43)"/><path class="cls-39" d="M840.69,528c-4.09.05-8.2.57-13.22-1h13.26Z" transform="translate(-788.07 -494.43)"/><path class="cls-134" d="M823.08,535.31l0,2.32a1.59,1.59,0,0,1-1.92.33c.31-1-.05-1.58-1.14-1.67a2.24,2.24,0,0,1-.38-1.92,2.33,2.33,0,0,1,.84-1.24,1.77,1.77,0,0,1,.93-.27,1.68,1.68,0,0,1,1.13.77C822.91,534.14,822.72,534.81,823.08,535.31Z" transform="translate(-788.07 -494.43)"/><path class="cls-135" d="M821,537.49l2.17.14c.53,0,1.07-.82,1.6,0,.23.67-.17,1-.68,1.27a10.56,10.56,0,0,1-2.69.22c-.69-.06-1.41.48-2.08-.06a1.85,1.85,0,0,1,.12-1.59A1.35,1.35,0,0,1,821,537.49Z" transform="translate(-788.07 -494.43)"/><path class="cls-136" d="M822.4,533.83l-.79-.7a2.63,2.63,0,0,1,.16-3.66l0,.06,1.25.21.24,1.19C822.34,531.73,823.35,533.05,822.4,533.83Z" transform="translate(-788.07 -494.43)"/><path class="cls-137" d="M823.84,538.45l.88-.81A2.2,2.2,0,0,1,827,539c-.26.3-.51.6-.77.89C825.12,539.91,824,539.89,823.84,538.45Z" transform="translate(-788.07 -494.43)"/><path class="cls-138" d="M822.4,533.83c.35-.94-.5-2.23.83-2.9l-.15,4.38C822.85,534.82,822.63,534.33,822.4,533.83Z" transform="translate(-788.07 -494.43)"/><path class="cls-139" d="M855.43,524.37a2.74,2.74,0,0,0,1.73,1.48L856,527.34c-.55,0-1.08-.12-1.35-.69,0-.77,0-1.53,0-2.3Z" transform="translate(-788.07 -494.43)"/><path class="cls-140" d="M847.89,548.05l.83.1c-1.1.92-2.15,1.15-3.09-.21V548A1.94,1.94,0,0,1,847.89,548.05Z" transform="translate(-788.07 -494.43)"/><path class="cls-141" d="M804.62,533.79l-.28-1.39c-.36-2.66,1.67-1.54,2.84-1.77,1.66,1.37,2,2.59-.38,3.53C806,534.21,805.23,534.6,804.62,533.79Z" transform="translate(-788.07 -494.43)"/><path class="cls-142" d="M808.16,539.21c-1.22-1.12-.44-2.57-.63-3.86,0-.24,0-.47,0-.71l.46-.28a1.42,1.42,0,0,1,1.41.58,3.35,3.35,0,0,1,.16,2.65A2.61,2.61,0,0,1,808.16,539.21Z" transform="translate(-788.07 -494.43)"/><path class="cls-143" d="M807.28,531.08c-1.15.06-2.65-.64-2.94,1.32a2.73,2.73,0,0,1-.57,0c0-.5,0-1,0-1.48,0-.22.06-.45.1-.67l4.38-.17c0,.29,0,.58,0,.88A.63.63,0,0,1,807.28,531.08Z" transform="translate(-788.07 -494.43)"/><path class="cls-144" d="M800.78,533.29l1.45.51c.82,1.47.82,1.47-1.36,1.55Z" transform="translate(-788.07 -494.43)"/><path class="cls-35" d="M804.62,533.79l2.08.09c.8-.33.93,0,.76.73l0,0C806.53,534.36,805.14,535.52,804.62,533.79Z" transform="translate(-788.07 -494.43)"/><path class="cls-145" d="M819.49,547.31l6,.19a2.62,2.62,0,0,1-1.74,1.37,3.87,3.87,0,0,1-4.27-.85l0,.06a.45.45,0,0,1-.2-.51C819.36,547.4,819.42,547.31,819.49,547.31Z" transform="translate(-788.07 -494.43)"/><path class="cls-146" d="M823.84,538.45l2.38,1.45-.85.75-2.17-1c-.64-.5-2.11.58-2.13-1.1Z" transform="translate(-788.07 -494.43)"/><path class="cls-147" d="M819.44,548l4.27.85C822.1,549.53,820.37,550.74,819.44,548Z" transform="translate(-788.07 -494.43)"/><path class="cls-148" d="M819.49,547.31v.77l-.66-.08.18-.77A1.1,1.1,0,0,1,819.49,547.31Z" transform="translate(-788.07 -494.43)"/><path class="cls-149" d="M847.89,548.05l-2.27,0C846.39,547,847.15,547.15,847.89,548.05Z" transform="translate(-788.07 -494.43)"/><path class="cls-150" d="M810.63,539.17a1.86,1.86,0,0,1-.1,2.18h-1.46l-.66-1.51C809,539.24,809.62,538.53,810.63,539.17Z" transform="translate(-788.07 -494.43)"/><path class="cls-35" d="M810.63,539.17l-2.22.68a4.47,4.47,0,0,1-.25-.64l.57-1.5c1.06,0,2.16-1.3,3.18.08C812.08,538.8,811.57,539.19,810.63,539.17Z" transform="translate(-788.07 -494.43)"/><path class="cls-149" d="M816.56,545c1.43-.4,2.12.17,2.13,1.62l-2.16,0Z" transform="translate(-788.07 -494.43)"/><path class="cls-151" d="M821.07,538.53l2.13,1.1c-1.76-.28-3.43.89-5.21.29,0-.27,0-.53,0-.79a3.36,3.36,0,0,1,.63-.06.64.64,0,0,1,1,0Z" transform="translate(-788.07 -494.43)"/><path class="cls-152" d="M819.63,539h-1c0-3.85-2.9-1.62-4.48-2.16,0-.25.11-.5.17-.75,1-1.05,2.25-.94,3.51-.91a3.18,3.18,0,0,1,1.72.66,1.25,1.25,0,0,1,0,1.67Z" transform="translate(-788.07 -494.43)"/><path class="cls-153" d="M811.91,537.79c-1-.42-2.16,1.57-3.18-.08.07-1,.13-2.05.19-3.08l.35-.32a2.47,2.47,0,0,1,.93-.21,1.77,1.77,0,0,1,1.78,1.32Z" transform="translate(-788.07 -494.43)"/><path class="cls-128" d="M812.51,531l.29.74c.94,1.1,2.47,1.11,3.57,1.93a1.25,1.25,0,0,1,0,2,4.72,4.72,0,0,1-2.9-.2,3.2,3.2,0,0,1-.63-.13,6.68,6.68,0,0,1-1.91-2.05,2.54,2.54,0,0,1-.13-.95C811.06,531.51,811.46,530.85,812.51,531Z" transform="translate(-788.07 -494.43)"/><path class="cls-154" d="M811.31,533.17a2.41,2.41,0,0,1,1.52,2.16l-.85.09-2.19-.88C809.2,532.89,809.89,532.62,811.31,533.17Z" transform="translate(-788.07 -494.43)"/><path class="cls-155" d="M813.46,535.46l3-.11a1.19,1.19,0,0,1,.87-.32c.5.16.82.45.73,1l-3.78.09Z" transform="translate(-788.07 -494.43)"/><path class="cls-156" d="M833.09,539.28a1.66,1.66,0,0,1,2.38-.65.49.49,0,0,1,.13.87C834.84,540.11,834,540,833.09,539.28Z" transform="translate(-788.07 -494.43)"/><path class="cls-157" d="M818.05,536.06l-.89-.65a6.27,6.27,0,0,1-.52-2.73,3.19,3.19,0,0,1,.54-1c.12-2,2.11-1.42,3.11-2.22.45.41,1.05.74.9,1.51a3.39,3.39,0,0,1-.82,1.61c-.22.21-.75.25-.42.77a1.17,1.17,0,0,1,.41.58l-.22,2.14a.38.38,0,0,1-.63.15Z" transform="translate(-788.07 -494.43)"/><path class="cls-158" d="M817.18,531.69c0,.24,0,.48,0,.72a3.67,3.67,0,0,1-1.37,1.55c-1.59.08-3-.14-3-2.19Z" transform="translate(-788.07 -494.43)"/><path class="cls-134" d="M812.09,530.22a4.24,4.24,0,0,0-.93-3.65l.93-.1c1-.78,1.54-.17,2.06.6,0,.58,0,1.15,0,1.73-1.08-.07-1.39.64-1.56,1.5Z" transform="translate(-788.07 -494.43)"/><path class="cls-159" d="M812.09,530.22a2.72,2.72,0,0,1,.51.08,1.81,1.81,0,0,1-.09.73l-1.29,1.47a1.7,1.7,0,0,1-2.38-.56,1,1,0,0,1,.13-1c0-.34.06-.68.1-1A2,2,0,0,0,812.09,530.22Z" transform="translate(-788.07 -494.43)"/><path class="cls-35" d="M820.85,530.5l-.56-1.5h1.48c0,1.22-.1,2.44-.16,3.66l-.28,0h-.27C820.34,532,820.61,531.25,820.85,530.5Z" transform="translate(-788.07 -494.43)"/><path class="cls-28" d="M814,527.07l-2.06-.6c.46-.93,0-2.74,2.06-2.17Z" transform="translate(-788.07 -494.43)"/><path class="cls-160" d="M809,530.94l0,.83a2.62,2.62,0,0,1,0,2.89l-.1,0-1.46,0-.76-.73c1-.76,1.45-1.65.58-2.8l.93-.15Z" transform="translate(-788.07 -494.43)"/><path class="cls-161" d="M819.51,536.23q.32-.09.63-.15l1.7.35-.89,1.06-1.48.08C819.49,537.13,819.5,536.68,819.51,536.23Z" transform="translate(-788.07 -494.43)"/><path class="cls-162" d="M820.85,531l.21,2.16-.7.81-.88,0c-.44-.76,0-1.07.66-1.31Z" transform="translate(-788.07 -494.43)"/><path class="cls-163" d="M809,534.66v-2.89l2.2.73c0,.22,0,.45.09.67-.9,0-1.54.33-1.52,1.37Z" transform="translate(-788.07 -494.43)"/><path class="cls-164" d="M815.64,534c.32-.63.43-1.44,1.36-1.55v3l-.71-.06A1.39,1.39,0,0,0,815.64,534Z" transform="translate(-788.07 -494.43)"/><path class="cls-165" d="M820.14,532.61l-.66,1.31c-1.16.14-1.64-.6-1.27-1.47C818.81,531.07,819.49,532.47,820.14,532.61Z" transform="translate(-788.07 -494.43)"/></svg>