<svg id="Camada_1" data-name="Camada 1" xmlns="http://www.w3.org/2000/svg" viewBox="0 0 349.26 93.85"><defs><style>.cls-1{fill:#f09720;}.cls-2{fill:#4f87fe;}.cls-3{fill:#08fafd;}.cls-4{fill:#08f9fe;}.cls-5{fill:#0bf9fd;}.cls-6{fill:#f90efe;}.cls-7{fill:#09fafd;}.cls-8{fill:#0df7fe;}.cls-9{fill:#0cf5fe;}.cls-10{fill:#f80bfe;}.cls-11{fill:#fb24fd;}.cls-12{fill:#f517fd;}.cls-13{fill:#0bfafd;}.cls-14{fill:#f146fd;}.cls-15{fill:#0af6fe;}.cls-16{fill:#f619fd;}.cls-17{fill:#f22ffd;}.cls-18{fill:#fdf4e9;}.cls-19{fill:#f025fd;}.cls-20{fill:#f321fd;}.cls-21{fill:#f017fd;}.cls-22{fill:#07fdfe;}.cls-23{fill:#43f3fd;}.cls-24{fill:#fd18fd;}.cls-25{fill:#fcf0e0;}.cls-26{fill:#f80efd;}.cls-27{fill:#f21cfd;}.cls-28{fill:#f129fd;}.cls-29{fill:#f6c787;}.cls-30{fill:#f532fd;}.cls-31{fill:#fb16fd;}.cls-32{fill:#5b9dfd;}.cls-33{fill:#fd19fd;}.cls-34{fill:#fceedc;}.cls-35{fill:#fceedb;}.cls-36{fill:#f9dcb5;}.cls-37{fill:#6da1fd;}.cls-38{fill:#69a2fd;}.cls-39{fill:#fd0cfd;}.cls-40{fill:#f13dfd;}.cls-41{fill:#1ff5fd;}.cls-42{fill:#fefefd;}.cls-43{fill:#ec3cfd;}.cls-44{fill:#fd25fd;}.cls-45{fill:#fdfaf5;}.cls-46{fill:#fdf6ec;}.cls-47{fill:#15ebfd;}.cls-48{fill:#fae5c8;}.cls-49{fill:#fd21fd;}.cls-50{fill:#f09a25;}.cls-51{fill:#f5b560;}.cls-52{fill:#f1a237;}.cls-53{fill:#fd17fd;}.cls-54{fill:#3b3e52;}.cls-55{fill:#3f4357;}.cls-56{fill:#4d82f4;}.cls-57{fill:#8fd6f8;}.cls-58{fill:#8cd2f4;}.cls-59{fill:#4c7ae0;}.cls-60{fill:#3a3d50;}.cls-61{fill:#4d7fec;}.cls-62{fill:#3f4662;}.cls-63{fill:#3f507c;}.cls-64{fill:#464756;}.cls-65{fill:#53545e;}.cls-66{fill:#4a76d6;}.cls-67{fill:#465e92;}.cls-68{fill:#4c7ce6;}.cls-69{fill:#4b7ae1;}.cls-70{fill:#435378;}.cls-71{fill:#41404e;}.cls-72{fill:#45485d;}.cls-73{fill:#4b7be2;}.cls-74{fill:#464858;}.cls-75{fill:#514949;}.cls-76{fill:#3b425b;}.cls-77{fill:#6e6051;}.cls-78{fill:#45434d;}.cls-79{fill:#4b79de;}.cls-80{fill:#fefefe;}.cls-81{fill:#0ef5fe;}.cls-82{fill:#ee34fd;}.cls-83{fill:#f526fd;}.cls-84{fill:#f04efd;}.cls-85{fill:#ebf0fe;}.cls-86{fill:#19e1fe;}.cls-87{fill:#f3f6fe;}.cls-88{fill:#e046fd;}.cls-89{fill:#0af4fd;}.cls-90{fill:#f23bfd;}.cls-91{fill:#0bf7fe;}.cls-92{fill:#f817fd;}.cls-93{fill:#e946fd;}.cls-94{fill:#4e86fc;}.cls-95{fill:#4d81f1;}.cls-96{fill:#4e84f8;}.cls-97{fill:#4562a7;}.cls-98{fill:#8fd7fa;}.cls-99{fill:#4d80ef;}.cls-100{fill:#486dbe;}.cls-101{fill:#3f517f;}.cls-102{fill:#4c7ee9;}.cls-103{fill:#434e66;}.cls-104{fill:#4d82f2;}.cls-105{fill:#4e85fa;}.cls-106{fill:#4c7eeb;}.cls-107{fill:#4a6492;}.cls-108{fill:#4f86fd;}.cls-109{fill:#4b7ae0;}.cls-110{fill:#4d81f0;}.cls-111{fill:#4e84f9;}.cls-112{fill:#3c435f;}.cls-113{fill:#4e83f7;}.cls-114{fill:#4e85fb;}.cls-115{fill:#4e83f6;}.cls-116{fill:#4d82f3;}.cls-117{fill:#4b68a0;}.cls-118{fill:#4971ca;}.cls-119{fill:#40485c;}.cls-120{fill:#4c78d2;}.cls-121{fill:#546c84;}.cls-122{fill:#414b66;}.cls-123{fill:#465779;}.cls-124{fill:#3b415b;}.cls-125{fill:#4564ad;}.cls-126{fill:#3d4459;}.cls-127{fill:#3d445d;}.cls-128{fill:#3b4058;}.cls-129{fill:#455b8d;}.cls-130{fill:#4462a7;}.cls-131{fill:#4a75d4;}.cls-132{fill:#3a3e52;}.cls-133{fill:#4a77da;}.cls-134{fill:#8ed5f7;}.cls-135{fill:#455269;}.cls-136{fill:#4870ca;}.cls-137{fill:#3e4762;}.cls-138{fill:#4972cf;}.cls-139{fill:#7ab5dd;}.cls-140{fill:#3e4660;}.cls-141{fill:#8bd0f2;}.cls-142{fill:#3f4e79;}.cls-143{fill:#45577d;}.cls-144{fill:#405485;}.cls-145{fill:#475775;}.cls-146{fill:#4972cd;}.cls-147{fill:#3a3f56;}.cls-148{fill:#8fd7f9;}.cls-149{fill:#405384;}.cls-150{fill:#3a3e53;}.cls-151{fill:#41578e;}.cls-152{fill:#404c68;}.cls-153{fill:#3a3e54;}.cls-154{fill:#8fd6f9;}.cls-155{fill:#4f86fe;}.cls-156{fill:#3a3f54;}.cls-157{fill:#78b0d4;}.cls-158{fill:#3b4057;}.cls-159{fill:#3f4f7b;}.cls-160{fill:#4664a9;}.cls-161{fill:#3e4a6f;}.cls-162{fill:#3f4e75;}.cls-163{fill:#3e4761;}.cls-164{fill:#405486;}.cls-165{fill:#4a76d5;}.cls-166{fill:#4d81f2;}.cls-167{fill:#4972ce;}.cls-168{fill:#3b4159;}.cls-169{fill:#476cc0;}.cls-170{fill:#6890ac;}.cls-171{fill:#85c5e6;}.cls-172{fill:#4b638a;}.cls-173{fill:#3b3f53;}.cls-174{fill:#4e85f9;}.cls-175{fill:#4a5a70;}.cls-176{fill:#3b425d;}.cls-177{fill:#87c8e9;}.cls-178{fill:#7cb3d2;}.cls-179{fill:#50657c;}.cls-180{fill:#3b435e;}.cls-181{fill:#4b5d77;}.cls-182{fill:#405181;}.cls-183{fill:#83c1e2;}.cls-184{fill:#4668b5;}.cls-185{fill:#4562a9;}.cls-186{fill:#78adcb;}.cls-187{fill:#3e455b;}.cls-188{fill:#44526e;}.cls-189{fill:#4c7ce4;}.cls-190{fill:#8bcff1;}.cls-191{fill:#3b415a;}.cls-192{fill:#4974d1;}.cls-193{fill:#4a77d9;}.cls-194{fill:#485b7b;}.cls-195{fill:#3c4462;}.cls-196{fill:#f09924;}.cls-197{fill:#f09822;}.cls-198{fill:#f19b28;}.cls-199{fill:#fcf2e4;}.cls-200{fill:#f19d2c;}.cls-201{fill:#f3af52;}.cls-202{fill:#fceeda;}.cls-203{fill:#f1a134;}.cls-204{fill:#f2a63f;}.cls-205{fill:#f1a135;}.cls-206{fill:#f9d8ac;}.cls-207{fill:#f3ad4e;}.cls-208{fill:#f3aa48;}.cls-209{fill:#f9dab1;}.cls-210{fill:#fcefde;}.cls-211{fill:#f09923;}.cls-212{fill:#f3af53;}.cls-213{fill:#f8d19d;}.cls-214{fill:#f4b35c;}.cls-215{fill:#f3ab4a;}.cls-216{fill:#fdf9f4;}.cls-217{fill:#f8d6a6;}.cls-218{fill:#fefdfb;}.cls-219{fill:#91dbfe;}.cls-220{fill:#91dbfd;}.cls-221{fill:#4a75d5;}.cls-222{fill:#4a75d3;}.cls-223{fill:#3a3d51;}.cls-224{fill:#3b3f56;}.cls-225{fill:#3c4563;}.cls-226{fill:#3c4460;}.cls-227{fill:#3d486a;}.cls-228{fill:#3b425c;}.cls-229{fill:#3a3e51;}.cls-230{fill:#4c7ce5;}.cls-231{fill:#88caeb;}.cls-232{fill:#8acef0;}.cls-233{fill:#91dafd;}.cls-234{fill:#90d8fb;}.cls-235{fill:#3b4053;}.cls-236{fill:#434d62;}.cls-237{fill:#3c4054;}.cls-238{fill:#414b5f;}</style></defs><path class="cls-1" d="M18.8,68.52l.14-1.43c-.2-2.53-1.67-4.77-1.65-7.34.18-2-.48-4.18.6-6.14.23-6.24,1.68-12.12,5.38-17.3,1.06-1.28.33-2.86.73-4.25h0a11.37,11.37,0,0,0,2.06-3.77A5.52,5.52,0,0,0,27.68,26a42.49,42.49,0,0,1,22-13.6,33.05,33.05,0,0,0,3.48-1.3c2.67-1.07,5.52-1,8.32-1.37a31.8,31.8,0,0,1,6.61.33c1.49.28,3.12-.58,4.5.56,10.87,2.27,20,7.9,27.77,15.43a29.79,29.79,0,0,1,9.3,21.65c0,8.63-.17,17.31-3.48,25.56-11.61,28.91-46.68,37.78-71.51,18.2-3.29-2.6-5.38-6.06-8.25-8.92-1.61-.71-2.24-2.15-2.72-3.69C22.16,76.39,20.52,74,20.06,71A5.3,5.3,0,0,0,18.8,68.52Z" transform="translate(-16.48 -8.95)"/><path class="cls-2" d="M181.27,49.91a3.47,3.47,0,0,1,2.42-.73c8.29,0,16.57,0,24.86.06a16.91,16.91,0,0,1,3.22.67,2.75,2.75,0,0,1,1.46,1.86,23.42,23.42,0,0,1,0,4.27c-1,5-1.46,10.05-2.16,15.09a11.16,11.16,0,0,1-.38,2.3c-.38,2.2-.69,4.42-1.25,6.6-1.9,1.7-4.25,1.85-6.63,1.87-5.47,0-10.94.08-16.42.12-2.2,2-1.22,4.9-2.1,7.28-.41,1.11-.63,2.35-1,3.51-3.5,3.36-7.85,2.5-12,2.25-.65,0,.1-.71.29-1.06,3.45-2.4,2.27-6.3,2.78-9.49,1.39-8.55,2.27-17.18,3.71-25.74.3-1.8.11-3.63.73-5.46A5.39,5.39,0,0,1,181.27,49.91Z" transform="translate(-16.48 -8.95)"/><path class="cls-2" d="M360.09,81.76l-29.66.13a3.53,3.53,0,0,1-2.42-.74c-2.38-2.6-1.11-5.74-.79-8.45.65-5.45,1.38-10.92,2.41-16.33.56-2,.43-4.1,1.83-5.78a3.66,3.66,0,0,1,3.27-1.39q13,0,26.09.06a9.74,9.74,0,0,1,2.48.64c2.09,1.54,1.18,3.7,1.15,5.67A61.18,61.18,0,0,1,363,66a4.07,4.07,0,0,1-2.23,3.13c-3.65,1.7-7.55.81-11.35,1-2.47.14-5,0-7.45.05-1.07,0-2.73-.27-2.77,1.11,0,1.67,1.7.93,2.65,1,5.57.25,11.19-.51,16.69.89C362.12,75.49,360.67,78.7,360.09,81.76Z" transform="translate(-16.48 -8.95)"/><path class="cls-2" d="M140.09,61.94c4-1.6,8.21-.78,12.33-1,3.29-.2,6.62.47,9.88-.43,1-.44,1.07-1,.27-1.74-6.27-.26-12.57.46-18.81-.6-.6-.1-1.23-.08-1.55-.75a7.51,7.51,0,0,1-.68-8.07q14.07,0,28.14-.16c1.42,0,2.59.69,3.91.88,2.49,1.46,1.45,3.67,1.25,5.71-.59,3.63-1,7.29-1.54,10.92-.54,1.35-.29,2.79-.49,4.18-.81,1.86-.38,3.91-.82,5.8-.33,1.36-.53,3-2,3.78a6.77,6.77,0,0,1-4.8,1.45c-8.14,0-16.29,0-24.43-.07-3.6-1.09-2.89-4.38-3.6-7,.62-3,.82-6,1.32-9A6.78,6.78,0,0,1,140.09,61.94Z" transform="translate(-16.48 -8.95)"/><path class="cls-2" d="M245.49,81.08c-3.34,1.36-6.84.76-10.27.8-6.06.07-12.11,0-18.16-.08-3.52-.8-3-3.89-3.66-6.34,1.08-6.66,1.88-13.35,2.87-20a9.2,9.2,0,0,1,2.17-5A2.77,2.77,0,0,1,221,49.22q13.35,0,26.72.1a8.11,8.11,0,0,1,2.11.61c2.68,1.66,1.52,4.09,1.29,6.34-.48,2.79-.57,5.64-1.14,8.42,0,1-.4,2-.43,3-.5,3.65-.73,7.35-1.83,10.91A4.05,4.05,0,0,1,245.49,81.08Z" transform="translate(-16.48 -8.95)"/><path class="cls-2" d="M300,58.73l-7.42-.63c-1.6-3.05-.12-5.53,1.52-8,2.26-1.78,5-.51,7.4-1.06,1.77-4.27,2.7-8.64,1.54-13.25a35.61,35.61,0,0,1,9,.16c3.81,2.3,1.82,5.6,1.51,8.61a38.13,38.13,0,0,0-.05,4c4.43,1.38,9,.09,13.46.72.73,3.09.27,5.85-2.25,8-3.9,1.65-8.1.75-12.12,1.46-2.35,2.54-1.19,5.9-2,8.82-.34,1.3-1.25,3-.07,4.54,4.22.53,8.52-.51,12.7.63,1.49,3.1.1,5.67-1.49,8.21-5.95,1.64-12,.74-18,.81-3-.11-4.26-2.14-5.19-4.56,0-5.13,1.31-10.11,1.8-15.18C300.57,60.87,301.28,59.72,300,58.73Z" transform="translate(-16.48 -8.95)"/><path class="cls-2" d="M256.67,50.54a2.86,2.86,0,0,1,2.84-1.34l30.38.17a6.76,6.76,0,0,1-1.76,7.35c-.17,1.7-1.54,1.2-2.54,1.38-6.36,1.17-12.82.23-19.21.8-1.33.65-1.28,1.87-1.48,3.11-.83,5-1.3,10.1-2.19,15.12A4.37,4.37,0,0,1,261,80.25c-3.35,3.11-7.37,1.16-11.1,1.42,2.93-5.76,2.51-12.21,3.8-18.3C254.65,59.08,254.06,54.45,256.67,50.54Z" transform="translate(-16.48 -8.95)"/><path class="cls-2" d="M128.64,37.9c2.55-3.75,6.31-1.82,9.61-2,.94,5.82-1.17,11.35-1.65,17-.37,4.52-1.71,8.9-1.88,13.45a4,4,0,0,1-.24,1.18c-.68,1.29-.41,2.7-.5,4.06-.89,3.15-.46,6.69-2.85,9.39-3.78,1.42-7.68.8-11.59.86,0-1.53,1.34-1.88,1.85-2.8,2.14-5.08,2-10.57,2.86-15.87,1.27-7.49,2-15.06,3.23-22.56A6.55,6.55,0,0,1,128.64,37.9Z" transform="translate(-16.48 -8.95)"/><path class="cls-3" d="M181.27,49.91c-2.82,3.11-2.35,7.17-2.92,10.84-1.53,9.81-2.63,19.69-4,29.53-.23,1.66,0,4-2.86,3.72,2.34-5.06,1.94-10.61,2.82-15.93,1.28-7.78,2.06-15.64,3.27-23.43C177.91,52.62,178.09,50,181.27,49.91Z" transform="translate(-16.48 -8.95)"/><path class="cls-4" d="M128.64,37.9c-1.72,12.16-3.38,24.32-5.24,36.46-.25,1.59.4,3.88-2,4.68,1.73-12.56,3.41-25.13,5.26-37.68C126.83,40.15,126.46,38.17,128.64,37.9Z" transform="translate(-16.48 -8.95)"/><path class="cls-5" d="M256.67,50.54C255,58.54,254,66.6,253,74.67a11.92,11.92,0,0,1-3,7c-.46.09-1.3.07-1-.46C252.7,75.62,251.52,69,252.9,63c.85-3.72.81-7.6,2.08-11.25A1.68,1.68,0,0,1,256.67,50.54Z" transform="translate(-16.48 -8.95)"/><path class="cls-6" d="M134.05,67l3.27-24.52c.29-2.2.62-4.4.93-6.6,2-.34,1.46.84,1.29,2-1.42,9.71-2.79,19.43-4.17,29.15a.8.8,0,0,1-1.12.18A.67.67,0,0,1,134.05,67Z" transform="translate(-16.48 -8.95)"/><path class="cls-7" d="M218.44,50.45c-2.61,8.33-2.84,17-4.23,25.57.18,1.7.64,3.39-.09,5.07-1.65-.33-1.68-1.64-1.59-2.86.63-8.43,2.08-16.75,3.43-25.08C216.17,51.88,216.58,50.41,218.44,50.45Z" transform="translate(-16.48 -8.95)"/><path class="cls-8" d="M300,58.73c3-.27,1.35,1.86,1.26,2.75-.56,5.31-1.33,10.6-2,15.89-.4,1.29,1.58,2.45.19,3.79-2.51-.59-2.31-2.44-2-4.32Z" transform="translate(-16.48 -8.95)"/><path class="cls-9" d="M330.1,56c-.82,6.83-1.55,13.68-2.52,20.49a11.8,11.8,0,0,0,.42,4.69c-2.49-.57-1.9-2.56-1.8-4.17a214.79,214.79,0,0,1,3.21-23.29C331.11,54,330.25,55.1,330.1,56Z" transform="translate(-16.48 -8.95)"/><path class="cls-10" d="M261,80.25c1.93-6,1.93-12.21,3.1-18.29.27-1.36-.13-3.22,2.24-3.06-1,6.14-1.88,12.29-3,18.41C263.2,78.54,263.38,80.53,261,80.25Z" transform="translate(-16.48 -8.95)"/><path class="cls-11" d="M172.85,66.88a37.6,37.6,0,0,1,1.56-11,.53.53,0,0,1,.75-.07.46.46,0,0,1,.07.07c-.84,7-1.6,14.12-2.61,21.15-.2,1.32-.21,3.49-2.65,3.38,1.73-3,.95-6.57,2.26-9.67C173,69.55,172.13,68.09,172.85,66.88Z" transform="translate(-16.48 -8.95)"/><path class="cls-12" d="M360.77,69.12A33.15,33.15,0,0,0,363.3,49.9c2.41,0,2.55,2,2.4,3.41-.46,4.29-1.21,8.54-2,12.79C363.46,67.66,363.06,69.38,360.77,69.12Z" transform="translate(-16.48 -8.95)"/><path class="cls-13" d="M140.09,61.94c-1.21,4.39-1.43,8.92-2.12,13.39,0,2,.56,4,.64,6.06-1.34-.21-2.37-.76-2.39-2.29a56.87,56.87,0,0,1,2.29-15.87A1.63,1.63,0,0,1,140.09,61.94Z" transform="translate(-16.48 -8.95)"/><path class="cls-14" d="M210.43,71.54a137.51,137.51,0,0,1,2.2-15.66,1,1,0,0,1,.66-.42.88.88,0,0,1,.67.4c-.7,5-1.42,9.93-2.09,14.89-.12.85,0,1.74-.66,2.43C210.46,72.86,210.88,72,210.43,71.54Z" transform="translate(-16.48 -8.95)"/><path class="cls-15" d="M303.08,35.82c2.16,3.33,1.22,11.44-1.54,13.25.3-2.56.52-5.13.92-7.67.27-1.69.77-3.25-.41-4.92C301.43,35.61,302.6,35.89,303.08,35.82Z" transform="translate(-16.48 -8.95)"/><path class="cls-16" d="M310.65,72.16c-.62,0-1.39.06-1.29-.79.46-3.75,1-7.48,1.52-11.21a1.45,1.45,0,0,1,1.5-1.4,1.54,1.54,0,0,1,.3,0Q311.67,65.47,310.65,72.16Z" transform="translate(-16.48 -8.95)"/><path class="cls-17" d="M134.05,67h1.32q-.66,4.45-1.31,8.93c-.3,2.07-.49,4.19-2.93,5l2.19-9.48c.76-1.2-.1-2.66.62-3.87A.71.71,0,0,1,134.05,67Z" transform="translate(-16.48 -8.95)"/><path class="cls-18" d="M20.32,70.73l3.87,8.17a.65.65,0,0,1-.92,0h0C20.34,77,19,74.31,19.5,70.77,19.73,70.36,20,70.34,20.32,70.73Z" transform="translate(-16.48 -8.95)"/><path class="cls-19" d="M247,79q1-5.69,2.08-11.37c.7.34.3,1.19.76,1.64-.2,3.61-.13,7.27-2.1,10.53C247.31,79.7,247.25,79.27,247,79Z" transform="translate(-16.48 -8.95)"/><path class="cls-20" d="M183.24,92.81c-.19-3.4,1.06-6.57,1.52-9.87.13-1,.82-1.06,1.61-.92-.47,2.48-1,5-1.42,7.44C184.72,90.76,184.64,92.11,183.24,92.81Z" transform="translate(-16.48 -8.95)"/><path class="cls-21" d="M360.09,81.76c-.34-2.89.75-6-1.55-8.59,2.28-.09,3.2,1.4,2.87,3.22S363.31,80.69,360.09,81.76Z" transform="translate(-16.48 -8.95)"/><path class="cls-22" d="M141.53,49.32a32.15,32.15,0,0,0,.68,8.07C139.34,55.53,138.94,50.76,141.53,49.32Z" transform="translate(-16.48 -8.95)"/><path class="cls-23" d="M294.14,50.13c-.65,2.63-1.7,5.18-1.52,8-3.18-.63-.89-3.05-1.49-4.52v.07C292.22,52.57,291.72,50.1,294.14,50.13Z" transform="translate(-16.48 -8.95)"/><path class="cls-24" d="M324.8,57.34c1.58-2.46,1.59-5.34,2.25-8.05.36,0,1-.1,1,.06C329.34,51.62,327.43,56.18,324.8,57.34Z" transform="translate(-16.48 -8.95)"/><path class="cls-25" d="M61.39,10.35c-2.72.47-5.42,1.1-8.21.76,1.63-2.87,4.57-1.38,6.87-2.06.4.48,1.09.21,1.55.58A.54.54,0,0,1,61.39,10.35Z" transform="translate(-16.48 -8.95)"/><path class="cls-26" d="M312.94,44.71c.44-3,1.79-6-.81-8.73,2.21,0,3.16,1.24,2.95,3.34-.18,1.8-.5,3.59-.76,5.39a.89.89,0,0,1-1.25.13A.8.8,0,0,1,312.94,44.71Z" transform="translate(-16.48 -8.95)"/><path class="cls-27" d="M288.13,56.72a24.83,24.83,0,0,0,1.76-7.35c3,.72.49,2.94,1.2,4.28v-.07C290,54.49,290.57,57,288.13,56.72Z" transform="translate(-16.48 -8.95)"/><path class="cls-28" d="M321.86,81c.83-2.68,1.73-5.34,1.49-8.21C325.75,74.6,325,78.74,321.86,81Z" transform="translate(-16.48 -8.95)"/><path class="cls-29" d="M17.91,60.26c.12,2.31,2.6,4.27,1,6.83-2.07-1.55-1.86-4-2.27-6.11.14-.26.28-.51.44-.77A.72.72,0,0,1,17.91,60.26Z" transform="translate(-16.48 -8.95)"/><path class="cls-30" d="M249.35,64.78a32.89,32.89,0,0,1,1.31-8.3c.44.13.51.6.79.88,0,1.76.53,3.59-.64,5.22C249.76,62.94,251.13,64.89,249.35,64.78Z" transform="translate(-16.48 -8.95)"/><path class="cls-31" d="M251.45,57.36c-.26-.3-.53-.59-.79-.88-.22-2.19.66-4.53-.85-6.56,2.64,0,2.51,1.86,2.38,3.58A29.86,29.86,0,0,1,251.45,57.36Z" transform="translate(-16.48 -8.95)"/><path class="cls-32" d="M299.46,81.16c.14-1.27-1.21-2.47-.19-3.79,1.62,1.39,2.08,3.94,4.57,4.44A5.93,5.93,0,0,1,299.46,81.16Z" transform="translate(-16.48 -8.95)"/><path class="cls-33" d="M175.23,55.9h-.82c-.25-2,.41-4-.83-5.82C177.61,51,175.82,53.63,175.23,55.9Z" transform="translate(-16.48 -8.95)"/><path class="cls-34" d="M23.26,78.94h.93l2.25,3.65C22.79,83.6,23.79,80.61,23.26,78.94Z" transform="translate(-16.48 -8.95)"/><path class="cls-35" d="M17.91,60.26h-.54c-1-.75,0-2.07-.81-2.86.23-1.34-.88-3.15,1.33-3.81C17.9,55.83,17.9,58,17.91,60.26Z" transform="translate(-16.48 -8.95)"/><path class="cls-36" d="M61.39,10.35V9.86c.76-1,2.08,0,2.92-.8a5.12,5.12,0,0,1,3.83.73c.21.11.29.24.24.38s-.12.21-.19.21Z" transform="translate(-16.48 -8.95)"/><path class="cls-37" d="M138.61,81.39c-1.21-1.92-1-4-.64-6.06,1,2.12.34,5,2.77,6.48A2,2,0,0,1,138.61,81.39Z" transform="translate(-16.48 -8.95)"/><path class="cls-38" d="M214.12,81.09c0-1.69.06-3.38.08-5.07,1,1.92.47,4.56,2.86,5.78A3.43,3.43,0,0,1,214.12,81.09Z" transform="translate(-16.48 -8.95)"/><path class="cls-39" d="M249.35,64.78c.48-.74,1-1.47,1.46-2.2l-.93,6.66c-.25-.54-.51-1.09-.76-1.64C249.19,66.66,249.27,65.72,249.35,64.78Z" transform="translate(-16.48 -8.95)"/><path class="cls-40" d="M209.42,80c-.57-2.26.13-4.35.84-6.44.88.88.06,2.13.67,3.07C210.57,77.84,210.63,79.22,209.42,80Z" transform="translate(-16.48 -8.95)"/><path class="cls-41" d="M330.1,56c-.12-.79.11-1.69-.69-2.28.34-1.26.31-2.76,2-3.1C331,52.38,331.07,54.31,330.1,56Z" transform="translate(-16.48 -8.95)"/><path class="cls-42" d="M24,32.06c1.27,1.67.63,3-.73,4.25C23.36,34.87,22.19,33.21,24,32.06Z" transform="translate(-16.48 -8.95)"/><path class="cls-43" d="M214,55.86h-.66c-.84-1.38.08-3-.6-4.4-.31-.52-.62-1-.92-1.55C215.93,50.65,213.5,53.78,214,55.86Z" transform="translate(-16.48 -8.95)"/><path class="cls-44" d="M312.94,44.71h1.38c-.2,1.3.62,2.78-.73,3.86C312.07,47.5,313.05,46,312.94,44.71Z" transform="translate(-16.48 -8.95)"/><path class="cls-45" d="M26.41,28.33A3.84,3.84,0,0,1,24,32.06c-.84-1.87,1.49-2.44,1.62-3.91A.6.6,0,0,1,26.41,28.33Z" transform="translate(-16.48 -8.95)"/><path class="cls-46" d="M68.19,10.38a3.92,3.92,0,0,1,0-.59c1.58-.24,3.29-1.11,4.47.84Z" transform="translate(-16.48 -8.95)"/><path class="cls-47" d="M162.57,58.74c.82-.3,1.8-.61,1.64.77-.11.9-.6,2-1.91,1Z" transform="translate(-16.48 -8.95)"/><path class="cls-48" d="M20.32,70.73l-.82.08c0-.82-2.27-1-.7-2.29C21.27,67.93,19.72,70.06,20.32,70.73Z" transform="translate(-16.48 -8.95)"/><path class="cls-49" d="M210.93,76.66c-1-.87-.4-2-.67-3.07,0-.68.11-1.36.17-2l.78,1.64C211.11,74.34,211,75.5,210.93,76.66Z" transform="translate(-16.48 -8.95)"/><path class="cls-50" d="M64.31,9.06c-.71,1.2-2,.42-2.92.8-.48-.21-1.21,0-1.34-.81Z" transform="translate(-16.48 -8.95)"/><path class="cls-51" d="M26.41,28.33l-.78-.18L27.69,26C27.69,27,28,28.2,26.41,28.33Z" transform="translate(-16.48 -8.95)"/><path class="cls-52" d="M16.56,57.42c1.23.68.59,1.89.81,2.86l-.7.7C16.63,59.79,16.6,58.6,16.56,57.42Z" transform="translate(-16.48 -8.95)"/><path class="cls-53" d="M247,79l.74.8a1.92,1.92,0,0,1-2.29,1.31C246,80.37,246.52,79.67,247,79Z" transform="translate(-16.48 -8.95)"/><path class="cls-54" d="M97.26,76.1a7.43,7.43,0,0,1-10.5.67A6.91,6.91,0,0,1,86,76a27,27,0,0,1-4.14-6.55c-.7-1.38-1.37-2.64-3.22-2.48,1-2.68,4.1-4.45,3.51-7.84,0-1.59-1.16-2.69-1.68-4.07a1.79,1.79,0,0,1,.26-1.42c.3-.19.78-.16,1-.45s-.2-.57-.51-.66a5.39,5.39,0,0,0-2.19,0,16.09,16.09,0,0,1-2.07.4c-.95,0-1.88-.06-2.19-1.21a2.72,2.72,0,0,1,2-1.52c.46-.24,1.81.7,1.22-1-.06-.18.46-.46.78-.6A11.89,11.89,0,0,1,82.32,48a1.61,1.61,0,0,1,1.18.92c1.23,2,.72,4.49,2.12,6.38a6,6,0,0,0,2.3.25,10.27,10.27,0,0,1,3,.66,1,1,0,0,1,.48,1.33c-1.45.92-3.11.61-5.3.92,5.89.06,9.57-2.17,11.38-7.2.63-1.57.27-3.24.55-4.85A2.54,2.54,0,0,1,98.84,45c1.87,4.42.55,9.11,1.15,13.66a20,20,0,0,1-.33,8.71,2.15,2.15,0,0,1-1.25-1c-1-2.88-.24-5.87-.53-8.92a21.6,21.6,0,0,1-6.61,4.22C86.9,63.41,86,65.07,87,69c1.24,4.87,3.68,6.92,7.92,6.66a10.55,10.55,0,0,1,1.49-.07A1.31,1.31,0,0,1,97.26,76.1Z" transform="translate(-16.48 -8.95)"/><path class="cls-54" d="M48.69,67.83c-2.76-1.08-4.25-.14-5.51,2.56-2,4.28-4.48,8.39-10.35,7.82-1.74-.17-3.41-.52-4.43-2.16l.36-.41c6.84-.67,9.52-2.94,10-8.23.28-2.94-.58-4.91-3.57-6-2.48-.91-5.23-1.7-6.31-4.62a1.33,1.33,0,0,1,.89-1.25c1.78-.15,3,1.32,4.55,1.65a14.71,14.71,0,0,0,7.33.51,2.41,2.41,0,0,1,1.06.19,2.42,2.42,0,0,1,.61.84c.16,3.94,2.94,6.22,5.53,8.62C48.8,67.51,48.74,67.67,48.69,67.83Z" transform="translate(-16.48 -8.95)"/><path class="cls-55" d="M68,64.2,57.44,64c-.64-1.12,0-2.24,0-3.36a5.63,5.63,0,0,1,.76-3.23c.67-.44,1.13-.06,1.54.43,2.52,3,5.1.91,7.66.09,1.31,1.58,1.37,3.46,1.33,5.37A1.4,1.4,0,0,1,68,64.2Z" transform="translate(-16.48 -8.95)"/><path class="cls-56" d="M28.32,42.5a5.69,5.69,0,0,1,2.09-3A6.8,6.8,0,0,0,33,37.8c1-.25,1.74-1.34,3-.88a2.24,2.24,0,0,1,1.27,1.64c-.11,1.4.09,2.85-.57,4.19a3.39,3.39,0,0,1-.88.72,9.89,9.89,0,0,1-6.42.38A1.4,1.4,0,0,1,28.32,42.5Z" transform="translate(-16.48 -8.95)"/><path class="cls-57" d="M44.25,33.21l1.43.7c.76,1.11,1.08,2.24.08,3.39a2.51,2.51,0,0,1-2.29.19,10.28,10.28,0,0,1-1.07-.35c-1.56-.64-3.2-.36-4.82-.43a16,16,0,0,1-2.19-.31c-.55-.23-1-.53-.9-1.22l2-2.47C39.08,32.59,41.75,31.63,44.25,33.21Z" transform="translate(-16.48 -8.95)"/><path class="cls-58" d="M89.9,33.36a3,3,0,0,1,1.48,2.36c.15,1.58-1,1.3-2,1.43-2-.37-4-.79-6,.13a4.25,4.25,0,0,1-2.31.52c-2.26-1.92-2.16-2.75.49-4.34a3,3,0,0,0,.73-.05c1.17-1.5,2.82-.81,4.29-1A14.17,14.17,0,0,1,89.9,33.36Z" transform="translate(-16.48 -8.95)"/><path class="cls-59" d="M95.16,40.08l.49.23A8.68,8.68,0,0,1,98,43.48l.1,1.08c.51.61.07.86-.42,1.09-1.1-.21-2.08-.93-3.27-.8a12.59,12.59,0,0,1-1.94-.16A4.3,4.3,0,0,1,90,43.22a2.68,2.68,0,0,1-.43-.84,7.23,7.23,0,0,1,.19-1.85,8.34,8.34,0,0,1,.41-2.27,1.62,1.62,0,0,1,.7-.62c.91-.29,1.47.41,2.15.75C94.05,38.55,94.42,39.55,95.16,40.08Z" transform="translate(-16.48 -8.95)"/><path class="cls-60" d="M48.84,39.42l29-.14a1.44,1.44,0,0,1,.51,1.06c-.44,1.5-1.1,2.69-3,2-1.21-1.08-2.69-1.06-4.19-1.08-7-.08-14.09,0-21.14.05-1.16,0-2-.4-2.15-1.71a.71.71,0,0,1,1-.22Z" transform="translate(-16.48 -8.95)"/><path class="cls-61" d="M83,58.88c.49,3.74-1.41,6.2-4.4,8.06l-1,.24c-1.43,1.75-3.27.8-5,.73v-.15c-.58-.74-.29-1.32.34-1.84,3.15-.67,6.28-1.38,7.65-4.85a9.42,9.42,0,0,1,.49-.88C81.63,59.58,81.91,58.63,83,58.88Z" transform="translate(-16.48 -8.95)"/><path class="cls-62" d="M30,55.87l-.76.79c-.24.11-.59.2-.7,0-2-2.93-.39,1.45-1.32.65a.71.71,0,0,1-.91,0c0-4.1-.76-8.25.69-12.28.94.73.9,1.89,1.24,2.87a6.16,6.16,0,0,1,.22,1.54,8.34,8.34,0,0,1,0,1C28.07,52.54,30.55,53.77,30,55.87Z" transform="translate(-16.48 -8.95)"/><path class="cls-63" d="M26.31,57.37h.58c2.1,2.33.79,5.17,1.16,7.76,0,1.71,0,3.43-.09,5.14a3.55,3.55,0,0,1-.58,1.79.76.76,0,0,1-1,.22l-.05,0C24.85,67.26,26.33,62.32,26.31,57.37Z" transform="translate(-16.48 -8.95)"/><path class="cls-64" d="M77.86,40.1c0-.27,0-.55-.07-.82.31-4,1.1-5.23,3.82-5.82-1.26,1.28-3.21,2.56,0,3.89a.68.68,0,0,1,.22.6c0,.21-.07.32-.12.32C80.49,39.07,79.77,40.82,77.86,40.1Z" transform="translate(-16.48 -8.95)"/><path class="cls-65" d="M48.84,39.42l-1,.11c-1.75.22-3-.25-3-2.29,1.5-.82.94-2.13.82-3.33C48.47,34.76,48.1,37.41,48.84,39.42Z" transform="translate(-16.48 -8.95)"/><path class="cls-66" d="M98.93,66.15c.24.38.48.76.71,1.15,0,3.15.56,6.44-2.38,8.8a1.8,1.8,0,0,1-.65-.09c-1.42-1.6.36-2.33.92-3.39a4.69,4.69,0,0,0,0-3.36,3.48,3.48,0,0,1,.07-1.54A2.48,2.48,0,0,1,98.93,66.15Z" transform="translate(-16.48 -8.95)"/><path class="cls-60" d="M55.89,65.61c-1.69,3-4.26,3.23-7.2,2.22v-.08c1.77-1.51,4-1.84,6.16-2.36A2.08,2.08,0,0,1,55.89,65.61Z" transform="translate(-16.48 -8.95)"/><path class="cls-67" d="M97.37,45.45c.25-.29.49-.59.74-.89l.71.37-.06,1.38c-.66.7.14,2.09-1.16,2.49a2,2,0,0,1-1-.08c-.45-.83-1.7-.66-2-1.64a1.84,1.84,0,0,1,.62-2A1.87,1.87,0,0,1,97.37,45.45Z" transform="translate(-16.48 -8.95)"/><path class="cls-68" d="M73.6,66.19a1.62,1.62,0,0,0-1,1.57c-.9.19-1.49-.45-2.19-.81-.63-1-1.75-1.67-1.87-3a1.05,1.05,0,0,1,.47-.86C71,63.55,72.68,64.28,73.6,66.19Z" transform="translate(-16.48 -8.95)"/><path class="cls-69" d="M58.29,61c-.28,1-.57,2-.85,3l-1.24.77-.39-.4c-.7-1.73-.1-3.24.82-4.7C58.21,58.85,57.84,60.46,58.29,61Z" transform="translate(-16.48 -8.95)"/><path class="cls-70" d="M92.91,38.54l-2.26-.64a2.1,2.1,0,0,1-2.46-.8c.09-.63.33-1,1.07-.69.74-.13,1.73.51,2.12-.69a2.53,2.53,0,0,1,1.53,2.08c.21.16.28.33.21.49S93,38.54,92.91,38.54Z" transform="translate(-16.48 -8.95)"/><path class="cls-71" d="M44.25,33.21c-2.55-.87-5.2-.05-7.77-.5C39.13,31.86,41.79,31,44.25,33.21Z" transform="translate(-16.48 -8.95)"/><path class="cls-72" d="M28.32,42.5l.95.87a2.39,2.39,0,0,1,.56.78,3.74,3.74,0,0,1,.17,1,4.4,4.4,0,0,1-.26,2,1.71,1.71,0,0,1-.71.7c-.88-.07-1.07-.72-1.21-1.41a3.85,3.85,0,0,0-.63-2.4A1.58,1.58,0,0,1,28.32,42.5Z" transform="translate(-16.48 -8.95)"/><path class="cls-73" d="M27.19,44c1.74,0,1.17,1.28,1.24,2.21-.61.59.09,1.6-.68,2.15-1.27-.84-.33-2.19-.75-3.23C27.06,44.71,27.12,44.34,27.19,44Z" transform="translate(-16.48 -8.95)"/><path class="cls-60" d="M72.66,67.91c1.64-.35,3.45.4,5-.73C76.3,69.65,74.43,68.41,72.66,67.91Z" transform="translate(-16.48 -8.95)"/><path class="cls-74" d="M34.49,35.18l.74.76c.67.26,1.19.6.77,1.44l-3,.68c-.21-.11-.29-.24-.23-.37s.12-.21.19-.21Z" transform="translate(-16.48 -8.95)"/><path class="cls-75" d="M86.9,32.82l-4.56.59c1-2.37,3-1,4.52-1.28.25.14.34.29.27.44S87,32.82,86.9,32.82Z" transform="translate(-16.48 -8.95)"/><path class="cls-60" d="M26.29,72.21l.63.06c1.33.89,2.52,1.83,1.59,3.68l-.11.1A4.08,4.08,0,0,1,26.29,72.21Z" transform="translate(-16.48 -8.95)"/><path class="cls-76" d="M68.89,64.12c.38,1,1.64,1.56,1.55,2.83A4.29,4.29,0,0,1,68,64.2l.25-.19C68.5,63.73,68.72,63.75,68.89,64.12Z" transform="translate(-16.48 -8.95)"/><path class="cls-77" d="M86.9,32.82v-.69c1.24-.14,2.39-.06,3,1.23A4.68,4.68,0,0,1,86.9,32.82Z" transform="translate(-16.48 -8.95)"/><path class="cls-78" d="M98,43.48c-.78-1.06-1.57-2.12-2.36-3.17C97.4,40.66,97.91,41.92,98,43.48Z" transform="translate(-16.48 -8.95)"/><path class="cls-76" d="M92.91,38.54V37.8c1.09.42,2.23.81,2.25,2.28Z" transform="translate(-16.48 -8.95)"/><path class="cls-78" d="M33,37.48a5.61,5.61,0,0,0,0,.58,2.65,2.65,0,0,1-2.61,1.41A5.6,5.6,0,0,1,33,37.48Z" transform="translate(-16.48 -8.95)"/><path class="cls-79" d="M55.89,65.61a3.69,3.69,0,0,0-.46-.08l-.08-.48a.67.67,0,0,1,.83-.26h0Z" transform="translate(-16.48 -8.95)"/><path class="cls-80" d="M189.28,59.07c3.94-.69,7.91-.35,11.87-.24.45,4.68.21,9.24-2.22,13.44l-11.17-.07c-1.44-2.23-.07-4.42.1-6.63A15.53,15.53,0,0,1,189.28,59.07Z" transform="translate(-16.48 -8.95)"/><path class="cls-81" d="M198.93,72.27l2.22-13.44c.88-.53,1.55-.19,1.45.74-.42,3.75-.93,7.49-1.5,11.22a1.75,1.75,0,0,1-1.93,1.53Z" transform="translate(-16.48 -8.95)"/><path class="cls-82" d="M188.5,65.51q-.36,3.34-.74,6.69c-1.55.13-1.51-1-1.36-1.94.4-2.64.9-5.27,1.36-7.91C188.75,63.23,187.83,64.56,188.5,65.51Z" transform="translate(-16.48 -8.95)"/><path class="cls-83" d="M188.5,65.51c-1-.88-.44-2.11-.74-3.16.25-1.21-.67-3,1.52-3.28Z" transform="translate(-16.48 -8.95)"/><path class="cls-84" d="M212.7,51.46c1.13,1.34.41,2.93.6,4.4h-.67C212.66,54.4,212.68,52.93,212.7,51.46Z" transform="translate(-16.48 -8.95)"/><path class="cls-85" d="M351.72,60.93h-9.31c-.73,0-1.66,0-1.78-.9-.16-1.23.87-1.32,1.74-1.33h10.06C353.27,59.78,352.78,60.44,351.72,60.93Z" transform="translate(-16.48 -8.95)"/><path class="cls-86" d="M351.72,60.93a2.57,2.57,0,0,0,.71-2.23c.75-.52,1.44-.53,1.46.53C353.91,60.6,353,61.05,351.72,60.93Z" transform="translate(-16.48 -8.95)"/><path class="cls-87" d="M160.89,72.17l-11.34.07a1.44,1.44,0,0,1,.18-2l11.24-.1a1.36,1.36,0,0,1,.05,1.91Z" transform="translate(-16.48 -8.95)"/><path class="cls-88" d="M149.73,70.24l-.18,2c-.65,0-1.64.41-1.61-.74S148.71,70.07,149.73,70.24Z" transform="translate(-16.48 -8.95)"/><path class="cls-89" d="M160.89,72.17c0-.67.05-1.35.08-2,.78,0,1.47.09,1.43,1S161.66,72.25,160.89,72.17Z" transform="translate(-16.48 -8.95)"/><path class="cls-90" d="M172.85,66.88c0,1.32.52,2.73-.62,3.88C172.18,69.43,172,68.07,172.85,66.88Z" transform="translate(-16.48 -8.95)"/><path class="cls-80" d="M237.14,72.15H225.28c-.19-4.59.22-9.08,2.27-13.28l11.31-.13A20.26,20.26,0,0,1,237.14,72.15Z" transform="translate(-16.48 -8.95)"/><path class="cls-91" d="M237.14,72.15q.86-6.69,1.72-13.38c.57-.11,1.43-.46,1.42.46a53.34,53.34,0,0,1-1.63,12.25C238.48,72.18,237.77,72.21,237.14,72.15Z" transform="translate(-16.48 -8.95)"/><path class="cls-92" d="M227.55,58.9q-1.14,6.63-2.27,13.28c-.46,0-1.32.17-1.24-.36.61-4.2.8-8.48,2.22-12.52C226.35,59.05,227.1,59,227.55,58.9Z" transform="translate(-16.48 -8.95)"/><path class="cls-93" d="M133.94,67.63c0,1.32.52,2.73-.62,3.87C133.28,70.17,133.13,68.82,133.94,67.63Z" transform="translate(-16.48 -8.95)"/><path class="cls-94" d="M98.93,66.15l-.72,1.6c-1-1.55-.22-3.11-.42-4.11a28.47,28.47,0,0,0,.29,7.6V73c0,1.27-2.15,1.46-1.49,3-4.9,1.68-8.08,0-10-5.16-2.06-5.45-1.1-7.88,3.9-10a29.51,29.51,0,0,0,4.34-2.12,41.84,41.84,0,0,0,4.13-3.51Z" transform="translate(-16.48 -8.95)"/><path class="cls-95" d="M85.44,55.9c-.56.42-1.37.63-1.36-.24A20.8,20.8,0,0,0,83,49.07c.81-1.12-.4-1.68-.72-2.49a2.53,2.53,0,0,1-.34-1c.23-1.72,1.25-2.33,2.88-1.9.94.25,1.86.85,2.7-.17A5.49,5.49,0,0,1,89,42.2a.83.83,0,0,1,.88.25h0c.94,1.45,2.26,2.76,1.79,4.74.07.65.24,1.28.32,1.92a2.65,2.65,0,0,1-.88,2.29,1.69,1.69,0,0,1-.95.29c-.94-.09-1.76-.86-2.77-.45A3.68,3.68,0,0,0,86,52.3c-.58.87-.27,1.79-.18,2.7A1.26,1.26,0,0,1,85.44,55.9Z" transform="translate(-16.48 -8.95)"/><path class="cls-96" d="M98.07,51.4c-1.17,6.24-9,9.92-15,5.85h8.17c.51-2-1.38-4.16.22-6.16A7.48,7.48,0,0,1,97.57,51Z" transform="translate(-16.48 -8.95)"/><path class="cls-97" d="M77.18,50.6l-2.33.81a.73.73,0,0,1-.94-.08,2,2,0,0,1,.24-2.43c.31-.38.65-.75.93-1.16.61-1,.33-2.34,1.25-3.23a1.61,1.61,0,0,1,1.51,0A4.72,4.72,0,0,1,79,47.39a2.44,2.44,0,0,1-.15,1C77.75,48.72,77.61,49.77,77.18,50.6Z" transform="translate(-16.48 -8.95)"/><path class="cls-98" d="M78.52,48.37V47.6a2.09,2.09,0,0,1,.75-2.43A2.45,2.45,0,0,1,81.4,45c.53.25.69.82,1,1.21h-.06a1.59,1.59,0,0,1,.08,2.25h0c-1.15.87-2.45.73-3.75.61-.28-.1-.39-.23-.34-.4S78.44,48.37,78.52,48.37Z" transform="translate(-16.48 -8.95)"/><path class="cls-99" d="M78.76,51.58c1-.06,1.94-.14,2.91-.17,1.14,0,1.42.74,1.38,1.68,0,.55.4,1.45-.35,1.53-.55.06-1.19-.61-1.8-1C79.27,53.9,78.64,53.13,78.76,51.58Z" transform="translate(-16.48 -8.95)"/><path class="cls-100" d="M78.76,51.58a4.25,4.25,0,0,0,2.14,2.08l.15,1.3a1.47,1.47,0,0,1-.82.69,3.72,3.72,0,0,1-3.11-.91,2,2,0,0,1-.52-1.52,2.34,2.34,0,0,1,.49-1Z" transform="translate(-16.48 -8.95)"/><path class="cls-101" d="M91.54,51.5c-.06,1.92,1.49,3.91-.26,5.75l-.69-.64a4.35,4.35,0,0,1-1.16-2,4.83,4.83,0,0,1-.21-.93,3,3,0,0,1,.25-1.41c.25-.46.76-.57,1.13-.87h0a.55.55,0,0,1,.77-.11A.58.58,0,0,1,91.54,51.5Z" transform="translate(-16.48 -8.95)"/><path class="cls-102" d="M80,55.39,81.1,55a4.73,4.73,0,0,1,2,3.92c-.43.48-.85,1-1.28,1.46-1-.56-1-1.71-1.45-2.55S79.48,56.27,80,55.39Z" transform="translate(-16.48 -8.95)"/><path class="cls-103" d="M89.77,53.4,90,54.6c-.18,1.37-.84,1.93-2.2,1.3a2.43,2.43,0,0,1-2.31,0,4.74,4.74,0,0,0,0-.84.55.55,0,0,1-.25-.56c0-.2.11-.3.17-.3A23.31,23.31,0,0,1,89.77,53.4Z" transform="translate(-16.48 -8.95)"/><path class="cls-104" d="M97.39,48.49c.46-.73.91-1.46,1.37-2.18-.14,1.71.82,3.56-.69,5.09h0a4.65,4.65,0,0,1-.61-.72C97.24,50,96.85,49.26,97.39,48.49Z" transform="translate(-16.48 -8.95)"/><path class="cls-105" d="M77.09,52.25v.81c-1.46.85-2.83,1.06-4-.52,0-.72.1-1.27,1-1.15h.67C75.3,52.46,76.32,52,77.09,52.25Z" transform="translate(-16.48 -8.95)"/><path class="cls-106" d="M87.75,55.9A2.24,2.24,0,0,0,90,54.6c.92.45.7,1.25.64,2C89.63,56.42,88.43,57.21,87.75,55.9Z" transform="translate(-16.48 -8.95)"/><path class="cls-107" d="M82.42,48.44a21.15,21.15,0,0,0-.08-2.25c2.2.53,1.93,1.59.64,2.88Z" transform="translate(-16.48 -8.95)"/><path class="cls-102" d="M78.52,48.37a2.67,2.67,0,0,1,.15.68c-.59.43.34,2.29-1.49,1.55C77.07,49.52,77.08,48.52,78.52,48.37Z" transform="translate(-16.48 -8.95)"/><path class="cls-108" d="M28.51,76l-1.59-3.68c0-.5.07-1,.1-1.51a.69.69,0,0,1,.67-.3c0-2.5.43-5,.51-8-.17,1.4.08,2.29-.29,3.12a.7.7,0,0,1-.92,0q-.06-4.11-.1-8.22c.08-.72.17-1.43.28-2.4l2.07,1.72c1.72,2.34,4.37,3.21,6.9,4.14C39.25,62,40.22,64,40,67.18,39.39,73.92,35.4,77.09,28.51,76Z" transform="translate(-16.48 -8.95)"/><path class="cls-109" d="M30,55.87c-.76-1.73-2.88-2.89-2.25-5.22,2.46-1.55,4.87-1.22,7.27.14a2.36,2.36,0,0,1,.84,2.05c-.33,1.41-1.32,2.66-1,4.23-.12.55-.63.69-1,.94C32.25,57.77,31.27,56.56,30,55.87Z" transform="translate(-16.48 -8.95)"/><path class="cls-110" d="M55.43,65.53a11.55,11.55,0,0,1-6.7,2.22c-3.48-2-6.4-4.29-5.9-8.87.77-.34,1.25.1,1.72.62a6.62,6.62,0,0,1,.6,1.33,5.87,5.87,0,0,0,1.48,2.43A5.09,5.09,0,0,0,52,64.94c1.18-.31,2.47-.46,3.46.63Z" transform="translate(-16.48 -8.95)"/><path class="cls-111" d="M33.78,58l.72-.66c2.31-1.55,4.73-1.18,7.18-.41a.93.93,0,0,1,.38,1.17C39.28,59.61,36.53,59,33.78,58Z" transform="translate(-16.48 -8.95)"/><path class="cls-69" d="M44.07,59.61l-1.24-.73c-.07-.26-.13-.51-.19-.77-.38-1.3.35-2.31.9-3.37a2.35,2.35,0,0,1,2.14-1.32,2,2,0,0,1,1.11,1.09c.38,1.34-.33,2.33-1.06,3.31C45.18,58.42,44.91,59.27,44.07,59.61Z" transform="translate(-16.48 -8.95)"/><path class="cls-112" d="M44.14,55.27l-1.5,2.84h-.58l-.15-.66a3.71,3.71,0,0,1-.76-1.6c-.07-1.18-.11-2.37,1.11-3.1C43.76,53,43.51,54.43,44.14,55.27Z" transform="translate(-16.48 -8.95)"/><path class="cls-113" d="M67.43,58c-1,2.69-3.37,2.14-5.56,2.48-2.92.46-2.24-2.24-3.45-3.2a2,2,0,0,1-.48-1.61c.47-1.32.22-3.22,2.5-3.08,1.85,3,2.91,3.12,5.2.35,2-.43,1.77,1.58,2.62,2.41a2.46,2.46,0,0,1,.25,1A2.2,2.2,0,0,1,67.43,58Z" transform="translate(-16.48 -8.95)"/><path class="cls-114" d="M58.42,55.87v1.45c0,1.23-.08,2.47-.13,3.7l-1.12-1.46c-1.53-1.14-1.66-2.67-1.21-4.36C57.07,54.38,57.85,54.76,58.42,55.87Z" transform="translate(-16.48 -8.95)"/><path class="cls-115" d="M67.43,58l.63-1.4c2.55,1.88,1.29,4.28.9,6.57l-.07.91a3,3,0,0,1-.66-.11C67.89,62,67.12,60.1,67.43,58Z" transform="translate(-16.48 -8.95)"/><path class="cls-116" d="M36.73,42.42a2.92,2.92,0,0,1,0-3.64c.27-.37.39-.87.91-1a1.49,1.49,0,0,1,.92.21c1.06,1,.6,2.09.29,3.19a2.73,2.73,0,0,1-1.22,1.51l-.49.05A5.15,5.15,0,0,0,36.73,42.42Z" transform="translate(-16.48 -8.95)"/><path class="cls-60" d="M29.31,44.12v-.75c2.18-.5,4.55.53,6.62-.84a1.12,1.12,0,0,1,.13,1.58.81.81,0,0,1-.19.18A6.83,6.83,0,0,1,29.31,44.12Z" transform="translate(-16.48 -8.95)"/><path class="cls-117" d="M37.51,38l-.78.74L36,37.34c-.25-.48-.51-1-.77-1.44l2.26-.08a.77.77,0,0,1,.34.67C37.78,37,37.92,37.6,37.51,38Z" transform="translate(-16.48 -8.95)"/><path class="cls-79" d="M35.89,43.94V42.53l.84-.11v.14A1.13,1.13,0,0,1,36.81,44,.92.92,0,0,1,35.89,43.94Z" transform="translate(-16.48 -8.95)"/><path class="cls-96" d="M44.87,37.24c.64,1.23,1.94,1.6,3,2.29.41.62.74,1.33,1.6,1.48l.45.35c.58.89.93,1.75-.28,2.44-2.11.35-4.21,1.06-6.37.25-1-1.43-.71-3.09-.77-4.69a7,7,0,0,1,.11-1.21,3.53,3.53,0,0,1,.87-1.57Z" transform="translate(-16.48 -8.95)"/><path class="cls-118" d="M43.47,36.58V38c-1.71,1.36-3.42,1.11-5.14,0h-.82c-.08-.51-.83-1,0-1.51,1.74.18,3.47-.76,5.21,0Z" transform="translate(-16.48 -8.95)"/><path class="cls-119" d="M42.69,36.5c-1.74-.19-3.47,1.57-5.21,0a1.89,1.89,0,0,1,0-.67C39.24,35.93,41.11,35,42.69,36.5Z" transform="translate(-16.48 -8.95)"/><path class="cls-120" d="M88.45,37c.75.25,1.66.08,2.2.87V38a5.87,5.87,0,0,1-1.08.7,18.32,18.32,0,0,1-7,0,2.13,2.13,0,0,1-1-.78,1.18,1.18,0,0,0,0-.59l1.51-.9C84.86,36.7,86.8,35.6,88.45,37Z" transform="translate(-16.48 -8.95)"/><path class="cls-121" d="M88.45,37c-1.72-.79-3.71.75-5.38-.59a6.88,6.88,0,0,1,6.19,0Z" transform="translate(-16.48 -8.95)"/><path class="cls-122" d="M90.67,48c.53-2-.5-3.71-.84-5.55L92.1,44a2.1,2.1,0,0,1,.58,1.56C92.43,46.67,92.09,47.77,90.67,48Z" transform="translate(-16.48 -8.95)"/><path class="cls-123" d="M89.87,42.5l-.8.11c-1.58,0-2-1.27-2.44-2.41.46-1.65,1.48-1.08,2.47-.63a4.72,4.72,0,0,1,1.36,1.52Z" transform="translate(-16.48 -8.95)"/><path class="cls-124" d="M97.37,45.45l-2.5.22a.89.89,0,0,1-.82-.39,1.14,1.14,0,0,1,.3-1.32C95.52,44.12,97.27,43.14,97.37,45.45Z" transform="translate(-16.48 -8.95)"/><path class="cls-125" d="M90.46,41.09l-1.35-.85A1.37,1.37,0,0,1,88.72,39c.17-.47.63-.63,1-.89l.9-.11Z" transform="translate(-16.48 -8.95)"/><path class="cls-126" d="M94.35,44v1.43a1.53,1.53,0,0,1-2.16.15l-.09-.09V44Z" transform="translate(-16.48 -8.95)"/><path class="cls-94" d="M58.42,55.87l-1.94-.75c-.75.1-1.18-.4-1.6-.9a4.72,4.72,0,0,0-1.71-1.49c-.66-.36-1.62-.18-2-1a5.48,5.48,0,0,1-.39-2V46a15,15,0,0,0-.25-2,3.61,3.61,0,0,0-1-3.11h0a2,2,0,0,1,2-.76H74.19c1.55,0,2.44.21,1.68,2a1.73,1.73,0,0,1,.34,1.4,3.46,3.46,0,0,0-.56,3.14,3.42,3.42,0,0,1-.7,2.41c-.86.56-.67,1.43-.66,2.25l-.83,1a3.5,3.5,0,0,0-2,1.64c-1,.75-1.64,2-3.16,1.91-2.11.11-1-2.53-2.53-2.93a15.8,15.8,0,0,1-5.27-.09C58.56,53.08,59.71,55.29,58.42,55.87Z" transform="translate(-16.48 -8.95)"/><path class="cls-106" d="M75.62,43.72c0-.51.09-1,.14-1.52a3.86,3.86,0,0,0,2.1-2.1c1.31-.56,2.09-2,3.65-2.16l1,.1c.4.34.92.55,1.14,1.08a3.82,3.82,0,0,1,0,2.12c-.42,1.34-.51,2.9-2.25,3.37a20.56,20.56,0,0,1-3.14.09l-.51-.08H76.49C76,44.55,75.59,44.32,75.62,43.72Z" transform="translate(-16.48 -8.95)"/><path class="cls-127" d="M68.23,55.9l2.89-2.28a2.27,2.27,0,0,1,3.1.06c.32.83-.25,1.32-.71,1.87-2.59,3.11-2.54,3.56.73,6.23a2.38,2.38,0,0,0,2.7.11,33.16,33.16,0,0,1,3.52-1.78c.64,0,.82.46,1,.93-1.15,4-4,5.39-7.88,5.15-1.87-.48-3.08-2-4.63-3l-.9-6.57C68.12,56.39,68.17,56.14,68.23,55.9Z" transform="translate(-16.48 -8.95)"/><path class="cls-128" d="M81.47,61l-.66-.85c-.64-1-1.73-1.94,0-2.91,1.2.75.7,2,.93,3.06Z" transform="translate(-16.48 -8.95)"/><path class="cls-129" d="M35.19,51.33c-2.43-.78-5-.56-7.44-.68l.1-.77A2.75,2.75,0,0,1,29,49.19a1.46,1.46,0,0,0,1.26-1.44A1.68,1.68,0,0,1,32,46.37a2.17,2.17,0,0,1,.93.27,1.64,1.64,0,0,1,.55,1.23c.38,1.16,1.68.3,2.27,1a1.62,1.62,0,0,1,.49.86A1.86,1.86,0,0,1,35.19,51.33Z" transform="translate(-16.48 -8.95)"/><path class="cls-130" d="M29.34,49.86H27.85c0-.52-.06-1-.1-1.56,0-.8-.07-1.6.68-2.15.16.52.13,1.17.86,1.33l.35.4A1.77,1.77,0,0,1,29.34,49.86Z" transform="translate(-16.48 -8.95)"/><path class="cls-131" d="M27,65.56h.65a6.64,6.64,0,0,1,0,5.28H27Z" transform="translate(-16.48 -8.95)"/><path class="cls-132" d="M97.39,72.12V61.55c1.1,2.51.43,4.42.82,6.2v1.56C98.24,70.34,99.46,71.7,97.39,72.12Z" transform="translate(-16.48 -8.95)"/><path class="cls-133" d="M97.39,72.12c1.07-.71.42-1.91.81-2.81A2.6,2.6,0,0,1,98.1,73C97.86,72.7,97.62,72.41,97.39,72.12Z" transform="translate(-16.48 -8.95)"/><path class="cls-134" d="M92.1,45.45l2.25-.06a.86.86,0,0,0,.52.28c.15.66.29,1.33.44,2-.31,1.86-1.89,1.61-3.16,1.88a.77.77,0,0,1-.79-.68L90.67,48C91.15,47.15,91.63,46.3,92.1,45.45Z" transform="translate(-16.48 -8.95)"/><path class="cls-135" d="M92,49c1-.73,2.58.07,3.3-1.32.76-.44,1.31-.49,1.22.65a2.71,2.71,0,0,1-2.08,2.28C93.09,50.88,91.84,51,92,49Z" transform="translate(-16.48 -8.95)"/><path class="cls-136" d="M94.54,50l2-1.66.86.17.69,2.19C96.81,50.87,95.37,51.93,94.54,50Z" transform="translate(-16.48 -8.95)"/><path class="cls-137" d="M55.47,53.52l1,1.6.69,4.44-1,5.23-.74.78c-2.22-.62-4.26,1.29-6.44.49a5.55,5.55,0,0,1-3.33-2.67c-.49-1,.31-1.13,1-1.37a3.37,3.37,0,0,1,1,.06,3.59,3.59,0,0,1,.88.43,3.2,3.2,0,0,0,3.46.24,6.56,6.56,0,0,0,1.69-1.59c1.56-1.91.16-3.78-.06-5.67a2.79,2.79,0,0,1,.54-1.44A1.16,1.16,0,0,1,55.47,53.52Z" transform="translate(-16.48 -8.95)"/><path class="cls-138" d="M35.89,43.94h.71a.69.69,0,0,1,.1,1,.47.47,0,0,1-.1.1c-1.31.86-2.8.64-4.25.68a4,4,0,0,1-2.9-.93,4.72,4.72,0,0,0-.1-.64Z" transform="translate(-16.48 -8.95)"/><path class="cls-128" d="M32.25,46.87a1.5,1.5,0,0,0-1.54,1.44c-.75.56-1-.18-1.45-.51v-.95c.75-1.08,1.49-2.2,3.11-1.49A1.18,1.18,0,0,1,32.25,46.87Z" transform="translate(-16.48 -8.95)"/><path class="cls-56" d="M32.22,45.4c-1.26-.09-1.9,1.09-2.94,1.45,0-.69.09-1.39.13-2.09h2.92a.42.42,0,0,1,0,.59Z" transform="translate(-16.48 -8.95)"/><path class="cls-139" d="M89.77,53.4a3.16,3.16,0,0,1-4.28.78,2.08,2.08,0,0,1,0-2.81l1-.67c1.71-.85,2.53.13,3.16,1.51Z" transform="translate(-16.48 -8.95)"/><path class="cls-140" d="M80.88,44c2,0,1.09-2.2,2.24-2.82A2.12,2.12,0,0,1,85,41.7c.87,1.09,2.33,1.29,3.31,2.2-.74,2-2,1.68-3.45.8-1.93-1.2-2.31,0-2.49,1.56l-.77-.77C81.22,45,80.41,44.82,80.88,44Z" transform="translate(-16.48 -8.95)"/><path class="cls-141" d="M88.34,43.87c-1.7.09-3.4.2-3.87-2-.32-.9.18-1.44.85-1.9a1.55,1.55,0,0,1,1.61.24c1.22.37,1.24,1.78,2.14,2.43Z" transform="translate(-16.48 -8.95)"/><path class="cls-142" d="M94.54,50c1,1.33,2.37.39,3.54.7v.76l-6.57.06-.94-.1c.25-.84.51-1.68.76-2.53A3.55,3.55,0,0,0,92,49C92.43,50.39,93.38,50.44,94.54,50Z" transform="translate(-16.48 -8.95)"/><path class="cls-143" d="M89.72,52.21c-.92-.78-1.79-1.66-3.16-1.51,1.69-1.78,2.73.22,4,.68Z" transform="translate(-16.48 -8.95)"/><path class="cls-76" d="M85.52,51.37v2.81a8.78,8.78,0,0,1-.1.88C84.11,53.78,84,52.55,85.52,51.37Z" transform="translate(-16.48 -8.95)"/><path class="cls-144" d="M75.62,43.72l.87.88c-.34,1.25.43,2.73-.8,3.8-.83-.54,0-1.69-.79-2.23C73.44,44.86,74.48,44.27,75.62,43.72Z" transform="translate(-16.48 -8.95)"/><path class="cls-145" d="M79.41,45.52c-.32.69-.63,1.39-.94,2.08-1-.82-.42-2-.72-3l.13.09C78.78,44.26,79.52,44.09,79.41,45.52Z" transform="translate(-16.48 -8.95)"/><path class="cls-146" d="M74.9,46.17c1.45.32.36,1.55.79,2.23l-.84.74C74.86,48.15,74.88,47.16,74.9,46.17Z" transform="translate(-16.48 -8.95)"/><path class="cls-147" d="M79.41,45.52a1.54,1.54,0,0,0-1.53-.81c.74-1.27,2-.63,3-.74l.75,1.49Z" transform="translate(-16.48 -8.95)"/><path class="cls-148" d="M80.82,57.28c-1,1,.39,1.94,0,2.91-.52,1.81-2.36,1.72-3.61,2.49a1.08,1.08,0,0,1-.86.12,7.18,7.18,0,0,0-1.78-.28l-.45-.06a3.66,3.66,0,0,1-3.45-3.55c-.3-2.35,1.38-3.76,3.45-4.64a2.46,2.46,0,0,1,3,0L80,55.4Z" transform="translate(-16.48 -8.95)"/><path class="cls-149" d="M77.1,54.25h-3c-.83-1-2-.5-3-.65.15-1.45.57-2.44,2.23-1.28,1.11,1,2.56.28,3.78.72Z" transform="translate(-16.48 -8.95)"/><path class="cls-150" d="M27.65,70.79V65.51c.38-1.26-.31-2.68.85-4.43V71.31c0,.07-.17.15-.26.22Z" transform="translate(-16.48 -8.95)"/><path class="cls-151" d="M41.91,55.79v1.66l-7.41-.1c-.69-1.41-1.27-2.79.72-3.68.79.54,1.43,1.38,2.55,1.26h1.58A3.84,3.84,0,0,1,41.91,55.79Z" transform="translate(-16.48 -8.95)"/><path class="cls-108" d="M37.55,55.88c-1.77.3-2.45-.55-2.33-2.22V51.33c.08-.6.15-1.2.82-1.47,1,.85.75,2.14,1.17,3.19.11.31.21.62.31.93A2.25,2.25,0,0,1,37.55,55.88Z" transform="translate(-16.48 -8.95)"/><path class="cls-152" d="M47.31,62.53a1.71,1.71,0,0,0-1.64.86,3.73,3.73,0,0,1-1.28-2.33,2.26,2.26,0,0,1,.82-.54,2.51,2.51,0,0,1,1.93.25,1.53,1.53,0,0,1,.49.84A1.6,1.6,0,0,1,47.31,62.53Z" transform="translate(-16.48 -8.95)"/><path class="cls-153" d="M45,61.07h-.62c-.1-.49-.21-1-.32-1.45.24-.87,0-2,1.24-2.33a3.06,3.06,0,0,1,.47,2.24A3.35,3.35,0,0,1,45,61.07Z" transform="translate(-16.48 -8.95)"/><path class="cls-154" d="M45,59.47c.09-.73.17-1.46.27-2.19.42-.91,1.34-1.61,1.18-2.77l.38-.33a12.63,12.63,0,0,1,5-.56c.92.19,1.74.5,2,1.55,1.2,2.27,2.83,4.54.08,6.86-1.77.63-3.55,1.12-5.43.41a2.89,2.89,0,0,1-1-.69,1.51,1.51,0,0,0-.32-.66C46.62,60.34,45.72,60.05,45,59.47Z" transform="translate(-16.48 -8.95)"/><path class="cls-133" d="M44.14,55.27c-1.49-.19-1.36-1.33-1.42-2.37-1.39-.95-.84-1.61.33-2.18,2.05-.19,4.37-.92,4.64,2.36a1.31,1.31,0,0,1-.8.88,1.42,1.42,0,0,1-1.17-.32A2.79,2.79,0,0,0,44.14,55.27Z" transform="translate(-16.48 -8.95)"/><path class="cls-155" d="M45.72,53.64h.71c.27.16.37.34.29.52s-.16.27-.25.27v.08Z" transform="translate(-16.48 -8.95)"/><path class="cls-114" d="M42.57,51.42c-.72.57.12,1,.15,1.48-1.33.67-.52,1.93-.81,2.89l-2.9.08a3.78,3.78,0,0,1-.21-2.3,5.67,5.67,0,0,0,.79-1.71A5.64,5.64,0,0,1,40.12,50a1.62,1.62,0,0,1,.82-.54,2.41,2.41,0,0,1,1,.09A2.15,2.15,0,0,1,43,50.65a.61.61,0,0,1-.4.76Z" transform="translate(-16.48 -8.95)"/><path class="cls-156" d="M60.43,52.88A4.38,4.38,0,0,1,65.7,53c.16,1,.88,2.43-.54,2.78a8.53,8.53,0,0,1-4.62-.07C59.17,55.21,60.14,53.86,60.43,52.88Z" transform="translate(-16.48 -8.95)"/><path class="cls-157" d="M37.4,42.54l.9-1.61A1.55,1.55,0,0,1,40,40.82a3.1,3.1,0,0,1,.87,3.9c-1.13,1.41-2.32,1.63-3.59.16A3.11,3.11,0,0,1,37.4,42.54Z" transform="translate(-16.48 -8.95)"/><path class="cls-158" d="M39.64,41.07l-1.35-.14V38h5.14v.75a6.26,6.26,0,0,1-.76.6c-1,.32-1.38,1.3-2.15,1.87A1.06,1.06,0,0,1,39.64,41.07Z" transform="translate(-16.48 -8.95)"/><path class="cls-159" d="M37.4,42.54l.14,1.88a1.29,1.29,0,0,1,.1,1,1,1,0,0,1-1,0,.75.75,0,0,1,.1-1,4.1,4.1,0,0,0-.11-.61l.18-1.38A2.36,2.36,0,0,1,37.4,42.54Z" transform="translate(-16.48 -8.95)"/><path class="cls-160" d="M43.52,44c2.11-.9,4.35-.7,6.56-.83a.57.57,0,0,1,.39.7,1.74,1.74,0,0,1-.65.64,12,12,0,0,1-1.3.5c-1.27.32-2.17,1.3-3.33,1.83a5.41,5.41,0,0,1-3.72-.15,1.55,1.55,0,0,1-.7-.85,2,2,0,0,1,0-1.11c0-1,.13-2,1.51-1.84C43,43,43.13,43.59,43.52,44Z" transform="translate(-16.48 -8.95)"/><path class="cls-161" d="M43.52,44l-.88-.67a3.84,3.84,0,0,1-.75-1.64,3.91,3.91,0,0,1,.74-2.86h.86Z" transform="translate(-16.48 -8.95)"/><path class="cls-76" d="M50.22,44c0-.3-.09-.59-.14-.89-.22-.73-.43-1.45-.64-2.18,1.52.58,1.42,2.15,2,3.28A1.54,1.54,0,0,1,50.22,44Z" transform="translate(-16.48 -8.95)"/><path class="cls-60" d="M83.09,38.85,82.48,38l7.23.08-.65.79c-1.63.19-3.21.76-4.88.53A4.11,4.11,0,0,1,83.09,38.85Z" transform="translate(-16.48 -8.95)"/><path class="cls-146" d="M83.92,38.87h5.14a11.74,11.74,0,0,0,0,1.33c-.73-.08-1.42-1.25-2.18-.06l-1.28.17C84.31,40.74,83.86,40.1,83.92,38.87Z" transform="translate(-16.48 -8.95)"/><path class="cls-162" d="M56.54,49.17c-1.13-.44-3.25.71-3.38-1.6-.1-1.94,1.39-2.66,3.19-2.73s3.21.94,3.3,2.64C59.75,49.41,58,49.11,56.54,49.17Z" transform="translate(-16.48 -8.95)"/><path class="cls-163" d="M69.8,49.18c-1.38-.25-3.21.51-3.18-1.66,0-1.75,1.29-2.55,2.94-2.59,1.81,0,3.18.76,3.14,2.71C72.66,49.86,70.71,48.75,69.8,49.18Z" transform="translate(-16.48 -8.95)"/><path class="cls-63" d="M69.17,42.27c-4.09.1-8.18.57-13.27-1H69.21Z" transform="translate(-16.48 -8.95)"/><path class="cls-164" d="M51.55,49.82l.05,2.33a1.57,1.57,0,0,1-1.92.32c.31-1-.06-1.58-1.14-1.67a2.29,2.29,0,0,1-.38-1.93A2.25,2.25,0,0,1,49,47.64a1.81,1.81,0,0,1,.93-.28,1.69,1.69,0,0,1,1.13.78C51.39,48.65,51.2,49.32,51.55,49.82Z" transform="translate(-16.48 -8.95)"/><path class="cls-165" d="M49.43,52l2.17.15c.53,0,1.07-.83,1.59,0,.24.67-.16,1-.67,1.27a10.57,10.57,0,0,1-2.69.23c-.69-.06-1.41.47-2.08-.07A1.89,1.89,0,0,1,47.86,52,1.37,1.37,0,0,1,49.43,52Z" transform="translate(-16.48 -8.95)"/><path class="cls-166" d="M50.88,48.34l-.79-.7A2.63,2.63,0,0,1,50.25,44V44l1.25.21c.08.4.16.8.23,1.2C50.82,46.23,51.83,47.56,50.88,48.34Z" transform="translate(-16.48 -8.95)"/><path class="cls-167" d="M52.32,53l.87-.81a2.19,2.19,0,0,1,2.28,1.37l-.77.9C53.6,54.42,52.52,54.4,52.32,53Z" transform="translate(-16.48 -8.95)"/><path class="cls-168" d="M50.88,48.34c.35-1-.5-2.23.82-2.9l-.15,4.38C51.33,49.33,51.11,48.83,50.88,48.34Z" transform="translate(-16.48 -8.95)"/><path class="cls-169" d="M83.92,38.87a2.74,2.74,0,0,0,1.73,1.48l-1.18,1.49a1.33,1.33,0,0,1-1.35-.69v-2.3Z" transform="translate(-16.48 -8.95)"/><path class="cls-170" d="M76.37,62.57l.83.11c-1.1.91-2.15,1.14-3.09-.22v.08A2,2,0,0,1,76.37,62.57Z" transform="translate(-16.48 -8.95)"/><path class="cls-171" d="M33.09,48.3l-.27-1.39c-.36-2.67,1.66-1.55,2.84-1.78,1.66,1.37,2,2.6-.39,3.54C34.52,48.72,33.7,49.11,33.09,48.3Z" transform="translate(-16.48 -8.95)"/><path class="cls-172" d="M36.64,53.73c-1.23-1.13-.44-2.58-.63-3.87v-.71l.45-.28a1.41,1.41,0,0,1,1.42.58A3.35,3.35,0,0,1,38,52.1,2.64,2.64,0,0,1,36.64,53.73Z" transform="translate(-16.48 -8.95)"/><path class="cls-173" d="M35.76,45.59c-1.15.06-2.65-.65-2.94,1.32a2.72,2.72,0,0,1-.57,0V45.44a3.75,3.75,0,0,1,.11-.67l4.38-.18v.88a.65.65,0,0,1-.9.18Z" transform="translate(-16.48 -8.95)"/><path class="cls-174" d="M29.26,47.8l1.45.51c.82,1.47.82,1.47-1.37,1.55C29.32,49.17,29.29,48.48,29.26,47.8Z" transform="translate(-16.48 -8.95)"/><path class="cls-60" d="M33.09,48.3l2.09.08c.8-.32.92.06.76.74h0C35,48.87,33.62,50,33.09,48.3Z" transform="translate(-16.48 -8.95)"/><path class="cls-175" d="M48,61.83l6,.2a2.6,2.6,0,0,1-1.74,1.36A3.84,3.84,0,0,1,48,62.54l0,.06a.45.45,0,0,1-.2-.51C47.84,61.92,47.9,61.83,48,61.83Z" transform="translate(-16.48 -8.95)"/><path class="cls-176" d="M52.32,53l2.38,1.46-.85.75-2.17-1c-.64-.5-2.11.58-2.13-1.11Z" transform="translate(-16.48 -8.95)"/><path class="cls-177" d="M47.92,62.54l4.27.85C50.58,64.05,48.85,65.27,47.92,62.54Z" transform="translate(-16.48 -8.95)"/><path class="cls-178" d="M48,61.83v.77l-.66-.07.18-.78A1.13,1.13,0,0,1,48,61.83Z" transform="translate(-16.48 -8.95)"/><path class="cls-179" d="M76.37,62.57H74.11C74.87,61.51,75.63,61.67,76.37,62.57Z" transform="translate(-16.48 -8.95)"/><path class="cls-180" d="M39.11,53.68a1.88,1.88,0,0,1-.1,2.19H37.55l-.66-1.51C37.51,53.75,38.09,53,39.11,53.68Z" transform="translate(-16.48 -8.95)"/><path class="cls-60" d="M39.11,53.68l-2.22.69a5,5,0,0,1-.25-.64l.57-1.51c1.06,0,2.16-1.3,3.18.08C40.56,53.31,40.05,53.7,39.11,53.68Z" transform="translate(-16.48 -8.95)"/><path class="cls-179" d="M45,59.47c1.43-.4,2.12.17,2.13,1.62H45Z" transform="translate(-16.48 -8.95)"/><path class="cls-181" d="M49.55,53l2.13,1.11c-1.76-.29-3.43.89-5.21.28V53.6a3.18,3.18,0,0,1,.62-.06.64.64,0,0,1,.89-.17.55.55,0,0,1,.17.17Z" transform="translate(-16.48 -8.95)"/><path class="cls-182" d="M48.11,53.58h-1c0-3.85-2.91-1.62-4.49-2.16l.18-.76c1-1,2.25-.94,3.5-.9a3.13,3.13,0,0,1,1.73.66,1.24,1.24,0,0,1,0,1.67Z" transform="translate(-16.48 -8.95)"/><path class="cls-183" d="M40.39,52.3c-1-.41-2.16,1.57-3.18-.08.06-1,.13-2,.19-3.08l.35-.32a2.47,2.47,0,0,1,.93-.21,1.77,1.77,0,0,1,1.78,1.32Z" transform="translate(-16.48 -8.95)"/><path class="cls-158" d="M41,45.54l.29.74c.93,1.1,2.47,1.11,3.57,1.93a1.26,1.26,0,0,1,0,2A4.72,4.72,0,0,1,42,50a3.46,3.46,0,0,1-.64-.13,6.65,6.65,0,0,1-1.9-2.05,2.35,2.35,0,0,1-.13-.95C39.54,46,39.94,45.35,41,45.54Z" transform="translate(-16.48 -8.95)"/><path class="cls-184" d="M39.79,47.68a2.39,2.39,0,0,1,1.51,2.16l-.84.09-2.19-.88C37.68,47.39,38.37,47.13,39.79,47.68Z" transform="translate(-16.48 -8.95)"/><path class="cls-185" d="M41.94,50l3-.11a1.17,1.17,0,0,1,.87-.32c.5.16.82.45.73,1l-3.78.09Z" transform="translate(-16.48 -8.95)"/><path class="cls-186" d="M61.56,53.78a1.66,1.66,0,0,1,2.24-.69l.14.08a1,1,0,0,1,.12.85C63.29,54.61,62.5,54.49,61.56,53.78Z" transform="translate(-16.48 -8.95)"/><path class="cls-164" d="M42.63,41.57V43.3c-1.08-.07-1.39.65-1.56,1.51l-.51-.08a4.26,4.26,0,0,0-.93-3.66l.93-.1C41.54,40.19,42.11,40.81,42.63,41.57Z" transform="translate(-16.48 -8.95)"/><path class="cls-187" d="M40.57,44.73a3,3,0,0,1,.51.07,1.86,1.86,0,0,1-.09.74L39.7,47a1.7,1.7,0,0,1-2.35-.52l0,0a1,1,0,0,1,.13-1l.09-1a2,2,0,0,0,2.78.5A2.43,2.43,0,0,0,40.57,44.73Z" transform="translate(-16.48 -8.95)"/><path class="cls-94" d="M42.63,41.57,40.57,41c.46-.93,0-2.74,2.06-2.17Z" transform="translate(-16.48 -8.95)"/><path class="cls-188" d="M37.45,45.45v.83a2.66,2.66,0,0,1,0,2.89H35.89l-.76-.74c1-.75,1.45-1.64.58-2.79l.93-.16Z" transform="translate(-16.48 -8.95)"/><path class="cls-189" d="M46.53,50.57l-.9-.65a6.39,6.39,0,0,1-.52-2.73,3.72,3.72,0,0,1,.54-1c.12-2,2.12-1.43,3.12-2.23.45.42,1,.74.89,1.51a3.21,3.21,0,0,1-.81,1.61c-.22.22-.76.26-.42.78a1.19,1.19,0,0,1,.41.58l-.22,2.14a.38.38,0,0,1-.63.15Z" transform="translate(-16.48 -8.95)"/><path class="cls-190" d="M45.65,46.2a4.21,4.21,0,0,1,0,.71,3.55,3.55,0,0,1-1.36,1.56c-1.6.08-3-.14-3-2.19Z" transform="translate(-16.48 -8.95)"/><path class="cls-60" d="M49.33,45.47,48.77,44h1.48c0,1.22-.11,2.44-.16,3.67h-.55C48.82,47,49.09,46.22,49.33,45.47Z" transform="translate(-16.48 -8.95)"/><path class="cls-191" d="M48,50.74q.31-.09.63-.15l1.7.35L49.44,52,48,52.09C48,51.64,48,51.19,48,50.74Z" transform="translate(-16.48 -8.95)"/><path class="cls-192" d="M49.33,45.47l.21,2.17-.7.81H48c-.44-.76,0-1.07.66-1.31Z" transform="translate(-16.48 -8.95)"/><path class="cls-193" d="M37.5,49.17V46.28l2.2.73a1.75,1.75,0,0,0,.09.67c-.9,0-1.55.33-1.52,1.37Z" transform="translate(-16.48 -8.95)"/><path class="cls-194" d="M44.27,48.47c.33-.63.44-1.45,1.37-1.56v3a2.76,2.76,0,0,1-.7-.06A1.4,1.4,0,0,0,44.27,48.47Z" transform="translate(-16.48 -8.95)"/><path class="cls-195" d="M48.62,47.12,48,48.43c-1.16.14-1.64-.6-1.27-1.47C47.29,45.57,48,47,48.62,47.12Z" transform="translate(-16.48 -8.95)"/><path class="cls-1" d="M18.55,61.53a84.14,84.14,0,0,1,.23-11c.49,0,.12.47.33.57-.12-.64.21-1.29.07-2,0-.13-.14-.26,0-.41.38-3.21,1.16-6.44,3.11-8.94,1.27-1.63,2.12-3.43,3.25-5.09.15-.21.5-.47.19-.73s-.43.22-.64.36-.29.56-.79.73a49.34,49.34,0,0,1,4.32-7,15.12,15.12,0,0,0-4.5,5.53c-1.15,2.14-2.23,4.32-3.39,6.58a.93.93,0,0,1,0-.94,36.87,36.87,0,0,1,9.09-14,58.59,58.59,0,0,1,5.89-5.36,43.07,43.07,0,0,1,9.45-4.91c.76-.82,1.83-.82,2.82-1,1.26-.41,2.55-.76,3.79-1.23a13.94,13.94,0,0,1,5.72-.9c2,.1,3.79-.63,5.71-.72,10.7-.46,20.26,2.66,29,8.75a30.16,30.16,0,0,1,6.22,5.44,8.92,8.92,0,0,0,1.46,1.42,12.85,12.85,0,0,0-2.2-2.93c.44-.1.59.25.81.45a42.76,42.76,0,0,1,8.83,12.2A29.43,29.43,0,0,1,110,46c.73,5.29,0,10.59-.46,15.83-1.47,16-9.81,27.73-23.41,35.72a38.66,38.66,0,0,1-15,4.82,64.13,64.13,0,0,1-6.79.43A44.41,44.41,0,0,1,43.4,97.68a43.48,43.48,0,0,1-9.21-6.54c-.71-.64-1.71-.67-2.27-1.47a47.48,47.48,0,0,0-3.4-4.57c-1.82-2-2.84-4.49-4.28-6.71-2-3.12-2.87-6.59-3.81-10.07a5.83,5.83,0,0,1-.68-2.19,5.61,5.61,0,0,0-.24-1c0-.79-.2-1.55-.26-2.33-.09-.31-.14-.64-.16-.74.09.15.06.57.19.94.06.78.21,1.54.27,2.32a8.56,8.56,0,0,1,.24,1,20.67,20.67,0,0,1,.45,2.45c0,1,.54,1.86.37,2.86a26,26,0,0,1-1.89-7.45,2,2,0,0,1-.27-1.41C18.36,62.33,18.75,62,18.55,61.53Z" transform="translate(-16.48 -8.95)"/><path class="cls-196" d="M70.92,10.65c-5.61-.6-11.17.18-16.75.58a41.93,41.93,0,0,1,17.2-.77C71.36,10.85,71.14,10.74,70.92,10.65Z" transform="translate(-16.48 -8.95)"/><path class="cls-197" d="M18.13,66.09a37.2,37.2,0,0,1-.81-10.47c.24,2.13.9,4.19,1,6.35a2.13,2.13,0,0,1,.29.81,3.08,3.08,0,0,1-.1,1.38c-.21.45-.09.85-.2,1.26C18.36,65.67,18.61,66,18.13,66.09Z" transform="translate(-16.48 -8.95)"/><path class="cls-198" d="M23.39,79.15l3.12,5.63A12.9,12.9,0,0,1,23.39,79.15Z" transform="translate(-16.48 -8.95)"/><path class="cls-198" d="M45,14.58l-.52.14c.58-.62,2.25-1.31,4.62-1.93.22-.1.44-.2.43.2l-1.91.72A4.43,4.43,0,0,1,45,14.58Z" transform="translate(-16.48 -8.95)"/><path class="cls-199" d="M45,14.58l2.62-.87.41.18a16.59,16.59,0,0,1-2.82,1Z" transform="translate(-16.48 -8.95)"/><path class="cls-200" d="M21.14,76.5A8.24,8.24,0,0,1,20.22,74c-.1-.23,0-.28.21-.25l.93,2.54C21.47,76.48,21.34,76.52,21.14,76.5Z" transform="translate(-16.48 -8.95)"/><path class="cls-201" d="M19.38,49c.41.86-.29,1.59-.2,2.49-.38-.31-.09-.74-.4-1a.39.39,0,0,1,.15-.46C19.23,49.77,18.86,49.2,19.38,49Z" transform="translate(-16.48 -8.95)"/><path class="cls-202" d="M19.86,66.05l.56,2.24-.19.46a7.94,7.94,0,0,1-.6-2.44C19.7,66.22,19.71,66.08,19.86,66.05Z" transform="translate(-16.48 -8.95)"/><path class="cls-203" d="M39.43,96.88a2.11,2.11,0,0,1-2-1.28A7.66,7.66,0,0,1,39.43,96.88Z" transform="translate(-16.48 -8.95)"/><path class="cls-204" d="M33.41,90.92a4.58,4.58,0,0,1,1.31,1.46Z" transform="translate(-16.48 -8.95)"/><path class="cls-205" d="M70.92,10.65l.45-.19,1.35.23A2.25,2.25,0,0,1,70.92,10.65Z" transform="translate(-16.48 -8.95)"/><path class="cls-204" d="M21.14,76.5l.22-.25a2.83,2.83,0,0,1,.58,1.41A1.88,1.88,0,0,1,21.14,76.5Z" transform="translate(-16.48 -8.95)"/><path class="cls-203" d="M18.13,66.09c.22-.18.14-.44.18-.67a2.86,2.86,0,0,1,.07,1.85Z" transform="translate(-16.48 -8.95)"/><path class="cls-206" d="M17.62,54c0,.34.12.72-.27,1-.3-.37,0-.67.1-1C17.51,53.88,17.56,53.87,17.62,54Z" transform="translate(-16.48 -8.95)"/><path class="cls-207" d="M19.94,72.63c-.48-.38-.31-.73-.39-1C19.9,71.81,19.93,72.12,19.94,72.63Z" transform="translate(-16.48 -8.95)"/><path class="cls-208" d="M20.43,73.71l-.21.25c-.3-.3-.22-.68-.44-1.22C20.35,73.05,20.31,73.43,20.43,73.71Z" transform="translate(-16.48 -8.95)"/><path class="cls-209" d="M18.5,62.65a.62.62,0,0,1-.17-.68l.22-.44a1.61,1.61,0,0,1,.15,1.12C18.63,62.75,18.56,62.74,18.5,62.65Z" transform="translate(-16.48 -8.95)"/><path class="cls-210" d="M18.5,62.65h.2v1.51h-.19Z" transform="translate(-16.48 -8.95)"/><path class="cls-211" d="M19.38,49c-.28.31-.07.82-.45,1.08a1.93,1.93,0,0,1,.22-1.33Z" transform="translate(-16.48 -8.95)"/><path class="cls-212" d="M49.48,13l-.43-.2c.3-.3.68-.22,1.09-.3C50,12.92,49.72,12.9,49.48,13Z" transform="translate(-16.48 -8.95)"/><path class="cls-213" d="M17.62,54h-.17V53A1.4,1.4,0,0,1,17.62,54Z" transform="translate(-16.48 -8.95)"/><path class="cls-214" d="M19.35,70.36l.15.69C19.05,70.89,19.19,70.62,19.35,70.36Z" transform="translate(-16.48 -8.95)"/><path class="cls-60" d="M100,59.77c.23,4,.2,7.38.23,10.78A14.1,14.1,0,0,1,99.82,74,7.8,7.8,0,0,1,87,77.87a17.88,17.88,0,0,1-3.63-5.08c-.68-1.31-1.42-2.6-2.06-3.93-.34-.71-.61-.83-1.34-.41a8.64,8.64,0,0,1-10.46-1.4,1.52,1.52,0,0,1-.36-.4c-.72-1.57-2-1.74-3.56-1.66-2,.11-4,0-5.95,0a1.37,1.37,0,0,0-1.33.67A8.56,8.56,0,0,1,46.8,68.28c-.83-.49-1.07-.27-1.48.47a72.1,72.1,0,0,1-3.79,6.68,11.88,11.88,0,0,1-3,3c-4.18,2.79-10.61.62-11.78-4.7a20.79,20.79,0,0,1-.39-5.16q.32-9.58.45-19.16a12.29,12.29,0,0,1,6.08-10.6A3,3,0,0,0,34.37,37a9.26,9.26,0,0,1,.78-1.9,3.42,3.42,0,0,1,2.57-1.95,15,15,0,0,1,6.54,0,6.38,6.38,0,0,1,4.57,5.63c.08,1.49.08,1.5,1.51,1.5,8.85,0,17.7.06,26.55.11.69,0,1.13-.05,1.2-.94.32-3.91,2.13-5.8,6-6.35a14.12,14.12,0,0,1,4.63.14,4.37,4.37,0,0,1,3.56,3.39,4.77,4.77,0,0,0,2.11,2.79A12.39,12.39,0,0,1,100,50Z" transform="translate(-16.48 -8.95)"/><path class="cls-215" d="M20.63,46.8c-.22.31,0,1-.7,1.27a.24.24,0,0,1-.29-.17.22.22,0,0,1,0-.16c.25-.42,0-1.12.67-1.29C20.46,46.42,20.78,46.16,20.63,46.8Z" transform="translate(-16.48 -8.95)"/><path class="cls-216" d="M19.35,62.67a11.5,11.5,0,0,1,.26,2.55c.12.24,0,.25-.19.24l-.29-2.58C19.05,62.66,19.15,62.61,19.35,62.67Z" transform="translate(-16.48 -8.95)"/><path class="cls-217" d="M19.35,62.67l-.22.21A1.45,1.45,0,0,1,19,61.66,1.85,1.85,0,0,1,19.35,62.67Z" transform="translate(-16.48 -8.95)"/><path class="cls-218" d="M19.42,65.46l.19-.24c.33.2.2.54.25.83l-.23.26Z" transform="translate(-16.48 -8.95)"/><path class="cls-155" d="M77,41.24a11.44,11.44,0,0,0-2.13,10c.15.63.21.93-.66,1.08a8.62,8.62,0,0,0-7.29,8.44c0,.87-.35,1-1.09,1-1.76-.07-3.53-.13-5.29-.12-.9,0-.75-.55-.76-1.07a8.66,8.66,0,0,0-6.17-8.14c-.59-.19-1.5.1-1.73-.57-.17-.5.22-1.17.32-1.78a11.31,11.31,0,0,0-1.57-8c-.14-.23-.41-.41-.37-.82Z" transform="translate(-16.48 -8.95)"/><path class="cls-155" d="M99.15,55.49v2.87q.09,5.67.19,11.34a17.52,17.52,0,0,1-.46,4.39,5.33,5.33,0,0,1-8.24,3.12,11.57,11.57,0,0,1-4.51-7.49c-.07-.35-.14-.71-.18-1.07-.42-3.56.35-4.87,3.66-6.28L93,60.92A12.76,12.76,0,0,0,99.15,55.49Z" transform="translate(-16.48 -8.95)"/><path class="cls-155" d="M27.79,55c1.47,3.28,4.24,5,7.39,6.26,1,.42,2,.9,3.06,1.37a3.89,3.89,0,0,1,2.49,3.62,12.72,12.72,0,0,1-3.85,9.87,5.47,5.47,0,0,1-6.19,1.24c-2.31-.92-3-2.88-3.28-5.07-.46-3.63.14-7.27,0-10.91-.07-2.09,0-4.18,0-6.27Z" transform="translate(-16.48 -8.95)"/><path class="cls-155" d="M50.57,44.66c-1.83-.08-3.67-.22-5.51-.22-.93,0-1.08-.35-1-1.14.11-1.18.15-2.38.24-3.56.05-.61-.12-.93-.82-1-2,0-4-.1-6.06-.19-.64,0-.89.2-1,.84-.15,1.32-.43,2.63-.54,4-.06.75-.39.85-1,.84H30.12c-.61,0-.93.16-1,.82-.19,1.87-.39,3.73-.66,5.59-.14,1,.16,1.38,1.2,1.34,1.47,0,3,0,4.43,0,.75,0,.92.26.86,1-.11,1.32-.09,2.67-.25,4-.15,1.14.37,1.36,1.34,1.33h5.63c.31,0,.88-.25.92.37a1,1,0,0,1-.81,1.16h0c-6.73,1.48-13.63-2.54-14-10a12,12,0,0,1,8-11.56c5.65-2.09,11.58-.13,14.4,4.8a3.43,3.43,0,0,1,.62,1.59.12.12,0,0,1-.15.07Z" transform="translate(-16.48 -8.95)"/><path class="cls-155" d="M39.65,39.67c-.25.63-1.29.67-1,1.35s1.1.26,1.67.38a2.44,2.44,0,0,0,.54,0c.31,0,.7.12.85-.29s-.16-.59-.42-.79-.37-.32-.55-.48c.09-.08.13-.17.17-.17,2.45-.13,2.45-.12,2.33,2.32a21.25,21.25,0,0,1-.13,2.26c-.14.84.26,1,1,1,1.66,0,3.31.16,5,.19.63,0,.91.14.85.84-.12,1.33-.19,2.66-.21,4,0,.81-.27,1.15-1.14,1.1-1.59-.08-3.18,0-4.76-.08-.71,0-1.06.15-1.07.94,0,1.36-.15,2.73-.18,4.1,0,.72-.23,1-1,1-1.73-.1-3.46.08-5.19-.1-.56-.06-.74-.24-.7-.8.11-1.43.11-2.88.25-4.31.09-.91-.27-1.12-1.09-1.1H30.16c-.65,0-.8-.22-.71-.83.22-1.46.43-2.93.55-4.4,0-.71.36-.8.95-.79h4.66c.85,0,1.12-.29,1.17-1.11.08-1.18.32-2.35.42-3.54.07-.84.43-1.15,1.26-1A9.91,9.91,0,0,0,39.65,39.67Z" transform="translate(-16.48 -8.95)"/><path class="cls-155" d="M97.81,45.77c-.07-1-.65-1.22-1.59-1.16-1.37.08-2.74-.06-4.11,0-.84,0-1.15-.26-1.21-1.08-.09-1.25-.31-2.5-.42-3.75-.06-.59-.29-.84-.88-.83-2.06,0-4.12.07-6.17.07-.63,0-.84.27-.8.86.08,1.29.13,2.59.24,3.88,0,.66-.15.9-.83.88H77.49a2,2,0,0,1-1.37,0A10.24,10.24,0,0,1,83.68,38,12.6,12.6,0,0,1,98,44.88C98,45.19,98.14,45.53,97.81,45.77Z" transform="translate(-16.48 -8.95)"/><path class="cls-155" d="M90,43.15v.43c.26,1.85.26,1.85,2.36,2a2.91,2.91,0,0,0-1.81,3,2.84,2.84,0,0,0,2.18,2.65c-.15.1-.2.15-.25.15-1.59,0-1.59,0-1.63,2a.26.26,0,0,1-.29,0c-.6-.75-1-1.64-2.09-1.94a2.81,2.81,0,0,0-2.25,5.12,2.94,2.94,0,0,0,3.7-.72c.26-.34.33-.82.78-1,.55.34.06.94.34,1.35.06,1.49.06,1.5-1.46,1.49H85.15c-.68,0-1-.17-1-.9,0-1.19-.05-2.39-.08-3.58,0-1.54,0-1.54-1.57-1.56h-.8a3.32,3.32,0,0,0,2.17-3,3.22,3.22,0,0,0-1.87-3c.61-.22,1.18,0,1.65-.31.27-.16-.05-.68.44-.71a1.6,1.6,0,0,1,.69.48c1.84,1.64,4.07,1,4.69-1.39a1.43,1.43,0,0,1,.18-.5.2.2,0,0,1,.25-.13A.18.18,0,0,1,90,43.15Z" transform="translate(-16.48 -8.95)"/><path class="cls-155" d="M51,52.92a8,8,0,0,1,8,7.88,7.86,7.86,0,1,1-8-7.88Z" transform="translate(-16.48 -8.95)"/><path class="cls-155" d="M75.58,68.71a7.82,7.82,0,1,1,7.87-7.93A7.91,7.91,0,0,1,75.58,68.71Z" transform="translate(-16.48 -8.95)"/><path class="cls-155" d="M97.81,45.77c0-.29-.08-.62.17-.88a10.71,10.71,0,0,1-4.87,14.33,10.86,10.86,0,0,1-4,1.07A17.23,17.23,0,0,1,84.94,60a1,1,0,0,1-.85-1.13v0c0-.75.67-.35,1-.36q3-.08,6,0c.76,0,1-.21,1-1-.11-1.47-.13-3-.23-4.42,0-.65.15-.89.83-.87,1.55,0,3.11,0,4.65.06.91,0,1.1-.3,1-1.14C98.15,49.35,97.78,47.58,97.81,45.77Z" transform="translate(-16.48 -8.95)"/><path class="cls-219" d="M35.22,37.5c.45-2.45,1.74-3.7,4.13-3.82a15.66,15.66,0,0,1,4.83.31c1.94.5,2.2.83,2.41,2.77a9.77,9.77,0,0,0,.08,1.44A13.7,13.7,0,0,0,35.22,37.5Z" transform="translate(-16.48 -8.95)"/><path class="cls-219" d="M91.71,37.75c-5.14-1.37-6.25-1.32-11.37.55a7.82,7.82,0,0,1,.19-2.55,1.47,1.47,0,0,1,1.06-1.13,11.92,11.92,0,0,1,8-.23C90.65,34.72,91.26,35.79,91.71,37.75Z" transform="translate(-16.48 -8.95)"/><path class="cls-220" d="M80.84,46.36A2.08,2.08,0,0,1,83,48.27a2.14,2.14,0,0,1-2.11,1.92,2.06,2.06,0,0,1-2.17-1.93A2,2,0,0,1,80.84,46.36Z" transform="translate(-16.48 -8.95)"/><path class="cls-220" d="M93.56,49.86a1.81,1.81,0,1,1,0-3.56A1.91,1.91,0,0,1,95.69,48v0a1.93,1.93,0,0,1-2,1.82Z" transform="translate(-16.48 -8.95)"/><path class="cls-94" d="M48.38,52.23a11,11,0,0,0-4.87,4.21v-3.7c0-.5.37-.52.76-.52C45.65,52.24,47,52.23,48.38,52.23Z" transform="translate(-16.48 -8.95)"/><path class="cls-108" d="M83.27,56.77a10.35,10.35,0,0,0-4.9-4.34h4.16c.48,0,.75.15.75.67C83.27,54.19,83.27,55.3,83.27,56.77Z" transform="translate(-16.48 -8.95)"/><path class="cls-105" d="M79.58,45.59c-2.42,2-2.35,3.87.06,5.91v.07c-2.31.18-2.33.18-2.49-2.08-.07-1,0-2-.1-3-.07-.76.24-1,.92-.9C78.41,45.62,78.91,45.59,79.58,45.59Z" transform="translate(-16.48 -8.95)"/><path class="cls-114" d="M84.16,44.66l-.44.64a29.68,29.68,0,0,0-.2-4.52c0-.74.2-.9.9-.91A34.27,34.27,0,0,0,89,39.75c.46-.06.63.14.7.58a6.63,6.63,0,0,1,.13,1.72.32.32,0,0,1-.3,0c-.41-.29-.68-.73-1.12-1A2.63,2.63,0,0,0,85.52,41a2.49,2.49,0,0,0-1.29,2.41C84.24,43.83,84.48,44.26,84.16,44.66Z" transform="translate(-16.48 -8.95)"/><path class="cls-105" d="M95,45.5h1.16a.7.7,0,0,1,.75.69c.14,1.47.28,2.93.46,4.4.07.62-.12.84-.75.81-.83,0-1.66,0-2.52-.06,1.3-.44,2.34-1.1,2.46-2.62A3.13,3.13,0,0,0,95,45.5Z" transform="translate(-16.48 -8.95)"/><path class="cls-104" d="M76.12,44.65h1.37c-1.33,0-1.4.79-1.37,1.89a52.68,52.68,0,0,1,.19,5.62C75.09,50.77,75,47,76.12,44.65Z" transform="translate(-16.48 -8.95)"/><path class="cls-113" d="M50.57,44.66h.21a9.5,9.5,0,0,1,0,7.29h-.33c.09-1.83.17-3.67.27-5.5C50.73,45.84,50.94,45.23,50.57,44.66Z" transform="translate(-16.48 -8.95)"/><path class="cls-221" d="M91.08,56.14c-.41-.35,0-.94-.38-1.29a1.07,1.07,0,0,1,0-1.51l0,0h.19A8.91,8.91,0,0,1,91.08,56.14Z" transform="translate(-16.48 -8.95)"/><path class="cls-222" d="M89.6,42.05h.18a1.52,1.52,0,0,1,.21,1.1h-.15a.78.78,0,0,1-.26-1.07Z" transform="translate(-16.48 -8.95)"/><path class="cls-223" d="M70.05,50H68.64c-1.74,0-2.49-.91-1.67-2.44.32-.6.91-1.69,2.09-1.57.64.06,1.29,0,1.94,0s1.21-.08,1.27.78a.28.28,0,0,0,.19.22c.4.07.83.12.83.65a11.34,11.34,0,0,1-.08,1.93c0,.36-.45.4-.79.41H70.05Z" transform="translate(-16.48 -8.95)"/><path class="cls-132" d="M63.34,57.16H62.05c-1.95,0-1.95,0-1.9-1.9a2.36,2.36,0,0,1,2.11-2.08c.9,0,1.8.07,2.69.12A2.9,2.9,0,0,1,66.59,55v1.19c0,.71-.33,1-1,.95Z" transform="translate(-16.48 -8.95)"/><path class="cls-60" d="M56.78,49.86H55.27c-1.59,0-2.17-.87-1.66-2.44a.49.49,0,0,1,.44-.4c.17,0,.45,0,.49-.13.9-2,2.58-.7,3.85-.84.9-.09,1.91,2.56,1.5,3.5-.16.36-.44.33-.72.33H56.78Z" transform="translate(-16.48 -8.95)"/><path class="cls-223" d="M63.36,42.92H57.3c-.34,0-.83.09-.81-.44s.49-.42.84-.42h11.8c.38,0,.93-.08.91.48s-.55.4-.94.39H63.36Z" transform="translate(-16.48 -8.95)"/><path class="cls-224" d="M54.56,42.45c0,.38-.27.49-.6.47s-.57-.14-.55-.5.28-.36.54-.36S54.53,42.08,54.56,42.45Z" transform="translate(-16.48 -8.95)"/><path class="cls-225" d="M72.94,42.6c-.06.36-.33.44-.63.42s-.51-.11-.51-.43a.5.5,0,0,1,.56-.49.52.52,0,0,1,.58.44Z" transform="translate(-16.48 -8.95)"/><path class="cls-156" d="M98.45,69.67c-.08,1.1-.16,2.21-.27,3.32,0,.28-.16.6-.53.54s-.41-.34-.38-.66c.35-3,0-6,.12-9v-.75c0-.3,0-.63.39-.66s.47.35.48.69C98.31,65.35,98.22,67.51,98.45,69.67Z" transform="translate(-16.48 -8.95)"/><path class="cls-226" d="M97.8,61.3c-.37-.06-.44-.33-.43-.64s.11-.51.43-.48a.51.51,0,0,1,.45.62A.49.49,0,0,1,97.8,61.3Z" transform="translate(-16.48 -8.95)"/><path class="cls-176" d="M97.05,74.78c.3,0,.5.16.48.45s-.14.59-.48.63a.39.39,0,0,1-.47-.29.43.43,0,0,1,0-.16A.63.63,0,0,1,97.05,74.78Z" transform="translate(-16.48 -8.95)"/><path class="cls-150" d="M29.32,64.12a49.32,49.32,0,0,0,0,8.42c0,.3,0,.61-.38.68s-.44-.26-.51-.54a10.2,10.2,0,0,1-.17-2.7c0-2.16,0-4.32.08-6.49a9.67,9.67,0,0,1,.12-1c0-.36,0-.54.4-.53s.46.3.47.61C29.33,63.12,29.32,63.62,29.32,64.12Z" transform="translate(-16.48 -8.95)"/><path class="cls-227" d="M30,75c0,.35-.14.57-.44.55s-.51-.36-.56-.67a.39.39,0,0,1,.31-.47h.12C29.84,74.38,29.84,74.78,30,75Z" transform="translate(-16.48 -8.95)"/><path class="cls-228" d="M29.35,60c0,.31-.08.59-.44.59s-.41-.22-.43-.5,0-.6.39-.64S29.34,59.71,29.35,60Z" transform="translate(-16.48 -8.95)"/><path class="cls-229" d="M34.63,50.72c-2.44,0-2.44,0-2.09-2.29v-.21c.1-.81-.19-2,.47-2.33a4.61,4.61,0,0,1,3.17-.11c1,.25,1.55,1.35,2,2.26s-.39,1.18-.86,1.68A2.83,2.83,0,0,1,34.63,50.72Z" transform="translate(-16.48 -8.95)"/><path class="cls-223" d="M40.85,47.46a2.07,2.07,0,0,0-.58.28c-.62.67-1,.31-1.6-.16-1.81-1.43-1.29-3.24-1-5a.61.61,0,0,1,.66-.55h0l3.36.07c.62,0,.68.43.63.89-.12,1.15-.28,2.29-.43,3.43A2.21,2.21,0,0,1,41,47.48Z" transform="translate(-16.48 -8.95)"/><path class="cls-223" d="M39.16,54.78c-2.61,0-2.44,0-2.37-2.62C36.85,50.48,38,49.94,39,49.1a.81.81,0,0,1,.5-.14,3.59,3.59,0,0,1,2.18,2.74,9.89,9.89,0,0,0-.13,1.72c.08,1-.34,1.47-1.38,1.36C39.81,54.75,39.49,54.78,39.16,54.78Z" transform="translate(-16.48 -8.95)"/><path class="cls-229" d="M41.93,46.7c1.12-1.13,2.46-.65,3.75-.55.57.05.56.48.54.89-.06,1-.16,2.07-.2,3.11,0,.58-.27.8-.87.83a4.35,4.35,0,0,1-3.94-1.43c-.61-.71-.85-1.28-.36-2.09h0C41.25,47.3,41.44,46.79,41.93,46.7Z" transform="translate(-16.48 -8.95)"/><path class="cls-150" d="M38.92,55c.47.25,1.21-.37,1.46.47.11.35-1.08,1.52-1.49,1.54s-1.6-1.15-1.5-1.51C37.64,54.59,38.43,55.29,38.92,55Z" transform="translate(-16.48 -8.95)"/><path class="cls-132" d="M47.59,46.89A4,4,0,0,1,49,48.18c.31.43-.12.71-.4,1s-.41.41-.62.6c-.43.37-.76.31-.81-.27s0-1.37,0-2.06a.51.51,0,0,1,.43-.56Z" transform="translate(-16.48 -8.95)"/><path class="cls-150" d="M32.11,47.27c-.07.57-.13,1.14-.23,1.71a.58.58,0,0,1-.39.6c-.29.08-.45-.14-.61-.34a1.46,1.46,0,0,1-.26-2.05,1.48,1.48,0,0,1,.77-.51C32,46.38,32.17,46.71,32.11,47.27Z" transform="translate(-16.48 -8.95)"/><path class="cls-230" d="M41.93,46.7c-.31.34-.58.74-1.11.78a3,3,0,0,1,1.09-1.1Z" transform="translate(-16.48 -8.95)"/><path class="cls-223" d="M90.7,53.32v1.53a3.12,3.12,0,0,1-6.06-1.49,2.4,2.4,0,0,1,.12-.38,3.09,3.09,0,0,1,2.82-2A3.15,3.15,0,0,1,90.7,53.32Z" transform="translate(-16.48 -8.95)"/><path class="cls-223" d="M89.6,42.05l.24,1.1c-.13,1.66-.74,2.56-2,3-1.46.46-2.54,0-3.67-1.44-.36-1.35-.4-2.65.8-3.64C86.48,39.77,88.46,40.23,89.6,42.05Z" transform="translate(-16.48 -8.95)"/><path class="cls-60" d="M57.8,60.56A6.57,6.57,0,1,1,44.67,61a4.34,4.34,0,0,1,0-.51,6.57,6.57,0,1,1,13.13-.44A4.34,4.34,0,0,1,57.8,60.56Z" transform="translate(-16.48 -8.95)"/><path class="cls-60" d="M75.33,67.24a6.62,6.62,0,0,1-6.52-6.7A6.75,6.75,0,0,1,75.44,54,6.66,6.66,0,0,1,82,60.75v.12A6.54,6.54,0,0,1,75.33,67.24Z" transform="translate(-16.48 -8.95)"/><path class="cls-231" d="M70.06,48.12c-.41-.11-.92.21-1.19-.23-.15-.24-.21-.74.11-.86a3.29,3.29,0,0,1,2.19,0c.35.1.28.6.14.84C71,48.35,70.47,48,70.06,48.12Z" transform="translate(-16.48 -8.95)"/><path class="cls-141" d="M63.32,55.2H63c-.41-.07-1,.24-1.06-.53s.66-.46,1-.51a11.61,11.61,0,0,1,1.18,0c.36,0,.65,0,.64.51s-.25.55-.63.54Z" transform="translate(-16.48 -8.95)"/><path class="cls-232" d="M56.67,46.85h.83c.23,0,.45,0,.47.32s.15.68-.15.77a3.75,3.75,0,0,1-2.1,0c-.33-.09-.24-.52-.17-.77C55.76,46.52,56.36,47,56.67,46.85Z" transform="translate(-16.48 -8.95)"/><path class="cls-220" d="M33.45,48.23c.15-1.77.15-1.77,2.15-1.62.46,0,1.56,1.08,1.53,1.45-.07.69-1.81,1.36-3.15,1.29C32.93,49.3,33.56,48.6,33.45,48.23Z" transform="translate(-16.48 -8.95)"/><path class="cls-233" d="M40.05,42.89c.31.34,1.26-.55,1.28.56,0,1.43-1,3.18-1.78,3.09a3.63,3.63,0,0,1-1.29-1.86C38.32,42.93,38.38,42.87,40.05,42.89Z" transform="translate(-16.48 -8.95)"/><path class="cls-233" d="M39,53.33c-.33-.32-1.25.57-1.31-.55s1-2.8,1.72-2.8c.37,0,1.36,1.2,1.36,1.63C40.73,53.33,40.73,53.33,39,53.33Z" transform="translate(-16.48 -8.95)"/><path class="cls-234" d="M45.19,48.43c.1.68,0,1.33-1.15,1.14-.75-.12-2.27-1-2.27-1.39s1.65-1.34,2.4-1.29C45.28,47,45.28,47,45.19,48.43Z" transform="translate(-16.48 -8.95)"/><path class="cls-233" d="M87.68,55.76a2.09,2.09,0,0,1-2.2-1.92,2.17,2.17,0,0,1,2.17-2,2.12,2.12,0,0,1,2.18,2,2,2,0,0,1-2.07,1.92Z" transform="translate(-16.48 -8.95)"/><path class="cls-233" d="M86.86,44.87a2.05,2.05,0,1,1,.15,0Z" transform="translate(-16.48 -8.95)"/><path class="cls-219" d="M45.71,60a5.1,5.1,0,1,1,5,5.24A5.19,5.19,0,0,1,45.71,60Z" transform="translate(-16.48 -8.95)"/><path class="cls-219" d="M76,65.28a5.12,5.12,0,0,1-5.18-5.06v0A5.22,5.22,0,0,1,76,55.1a5.15,5.15,0,0,1,5,5,5,5,0,0,1-4.82,5.18Z" transform="translate(-16.48 -8.95)"/><path class="cls-235" d="M50.53,64a4.71,4.71,0,0,1-4-2.71c-.15-.29-.41-.69.06-.93s.54.18.7.45c1.52,2.47,3.48,2.94,6,1.44.29-.17.58-.43.82,0s-.08.59-.34.8A5,5,0,0,1,50.53,64Z" transform="translate(-16.48 -8.95)"/><path class="cls-236" d="M55.34,60.82c-.1.26-.18.55-.54.54a.37.37,0,0,1-.42-.33.38.38,0,0,1,0-.15c0-.28.16-.58.52-.57S55.33,60.53,55.34,60.82Z" transform="translate(-16.48 -8.95)"/><path class="cls-237" d="M76,64.15a4.94,4.94,0,0,1-4.32-2.75c-.15-.28-.45-.67.06-.92s.54.16.71.44c1.48,2.43,3.51,2.93,5.93,1.48.31-.18.63-.5.92-.06s-.15.57-.39.76A5,5,0,0,1,76,64.15Z" transform="translate(-16.48 -8.95)"/><path class="cls-238" d="M80.47,60.92a.6.6,0,0,1-.48.61c-.3,0-.45-.19-.45-.46s.11-.58.46-.61S80.43,60.64,80.47,60.92Z" transform="translate(-16.48 -8.95)"/><!-- Code injected by live-server -->
<script>
	// <![CDATA[  <-- For SVG support
	if ('WebSocket' in window) {
		(function () {
			function refreshCSS() {
				var sheets = [].slice.call(document.getElementsByTagName("link"));
				var head = document.getElementsByTagName("head")[0];
				for (var i = 0; i < sheets.length; ++i) {
					var elem = sheets[i];
					var parent = elem.parentElement || head;
					parent.removeChild(elem);
					var rel = elem.rel;
					if (elem.href && typeof rel != "string" || rel.length == 0 || rel.toLowerCase() == "stylesheet") {
						var url = elem.href.replace(/(&|\?)_cacheOverride=\d+/, '');
						elem.href = url + (url.indexOf('?') >= 0 ? '&' : '?') + '_cacheOverride=' + (new Date().valueOf());
					}
					parent.appendChild(elem);
				}
			}
			var protocol = window.location.protocol === 'http:' ? 'ws://' : 'wss://';
			var address = protocol + window.location.host + window.location.pathname + '/ws';
			var socket = new WebSocket(address);
			socket.onmessage = function (msg) {
				if (msg.data == 'reload') window.location.reload();
				else if (msg.data == 'refreshcss') refreshCSS();
			};
			if (sessionStorage && !sessionStorage.getItem('IsThisFirstTime_Log_From_LiveServer')) {
				console.log('Live reload enabled.');
				sessionStorage.setItem('IsThisFirstTime_Log_From_LiveServer', true);
			}
		})();
	}
	else {
		console.error('Upgrade your browser. This Browser is NOT supported WebSocket for Live-Reloading.');
	}
	// ]]>
</script>
</svg>